<svg xmlns="http://www.w3.org/2000/svg" xmlns:xlink="http://www.w3.org/1999/xlink" width="375" viewBox="0 0 375 375" height="375" version="1.0"><defs><clipPath id="a"><path d="M 127 70.621094 L 349.601562 70.621094 L 349.601562 304.621094 L 127 304.621094 Z M 127 70.621094"/></clipPath><clipPath id="b"><path d="M 0 128 L 205 128 L 205 234 L 0 234 Z M 0 128"/></clipPath><clipPath id="c"><path d="M 180.84375 261.195312 L -25.0625 198.46875 L 9.46875 85.113281 L 215.375 147.835938 Z M 180.84375 261.195312"/></clipPath><clipPath id="d"><path d="M 180.84375 261.195312 L -25.0625 198.46875 L 9.46875 85.113281 L 215.375 147.835938 Z M 180.84375 261.195312"/></clipPath><clipPath id="e"><path d="M 180.84375 261.195312 L -25.0625 198.46875 L 9.46875 85.113281 L 215.375 147.835938 Z M 180.84375 261.195312"/></clipPath><clipPath id="f"><path d="M 0 126 L 207 126 L 207 236 L 0 236 Z M 0 126"/></clipPath><clipPath id="g"><path d="M 180.84375 261.195312 L -25.0625 198.46875 L 9.46875 85.113281 L 215.375 147.835938 Z M 180.84375 261.195312"/></clipPath><clipPath id="h"><path d="M 180.84375 261.195312 L -25.0625 198.46875 L 9.46875 85.113281 L 215.375 147.835938 Z M 180.84375 261.195312"/></clipPath><clipPath id="i"><path d="M 180.84375 261.195312 L -25.0625 198.46875 L 9.46875 85.113281 L 215.375 147.835938 Z M 180.84375 261.195312"/></clipPath><clipPath id="j"><path d="M 136 129 L 163 129 L 163 139 L 136 139 Z M 136 129"/></clipPath><clipPath id="k"><path d="M 180.84375 261.195312 L -25.0625 198.46875 L 9.46875 85.113281 L 215.375 147.835938 Z M 180.84375 261.195312"/></clipPath><clipPath id="l"><path d="M 180.84375 261.195312 L -25.0625 198.46875 L 9.46875 85.113281 L 215.375 147.835938 Z M 180.84375 261.195312"/></clipPath><clipPath id="m"><path d="M 180.84375 261.195312 L -25.0625 198.46875 L 9.46875 85.113281 L 215.375 147.835938 Z M 180.84375 261.195312"/></clipPath><clipPath id="n"><path d="M 135 128 L 167 128 L 167 140 L 135 140 Z M 135 128"/></clipPath><clipPath id="o"><path d="M 180.84375 261.195312 L -25.0625 198.46875 L 9.46875 85.113281 L 215.375 147.835938 Z M 180.84375 261.195312"/></clipPath><clipPath id="p"><path d="M 180.84375 261.195312 L -25.0625 198.46875 L 9.46875 85.113281 L 215.375 147.835938 Z M 180.84375 261.195312"/></clipPath><clipPath id="q"><path d="M 180.84375 261.195312 L -25.0625 198.46875 L 9.46875 85.113281 L 215.375 147.835938 Z M 180.84375 261.195312"/></clipPath><clipPath id="r"><path d="M 1 149 L 36 149 L 36 161 L 1 161 Z M 1 149"/></clipPath><clipPath id="s"><path d="M 180.84375 261.195312 L -25.0625 198.46875 L 9.46875 85.113281 L 215.375 147.835938 Z M 180.84375 261.195312"/></clipPath><clipPath id="t"><path d="M 180.84375 261.195312 L -25.0625 198.46875 L 9.46875 85.113281 L 215.375 147.835938 Z M 180.84375 261.195312"/></clipPath><clipPath id="u"><path d="M 180.84375 261.195312 L -25.0625 198.46875 L 9.46875 85.113281 L 215.375 147.835938 Z M 180.84375 261.195312"/></clipPath><clipPath id="v"><path d="M 0 148 L 38 148 L 38 162 L 0 162 Z M 0 148"/></clipPath><clipPath id="w"><path d="M 180.84375 261.195312 L -25.0625 198.46875 L 9.46875 85.113281 L 215.375 147.835938 Z M 180.84375 261.195312"/></clipPath><clipPath id="x"><path d="M 180.84375 261.195312 L -25.0625 198.46875 L 9.46875 85.113281 L 215.375 147.835938 Z M 180.84375 261.195312"/></clipPath><clipPath id="y"><path d="M 180.84375 261.195312 L -25.0625 198.46875 L 9.46875 85.113281 L 215.375 147.835938 Z M 180.84375 261.195312"/></clipPath><clipPath id="z"><path d="M 41 204 L 100 204 L 100 221 L 41 221 Z M 41 204"/></clipPath><clipPath id="A"><path d="M 180.84375 261.195312 L -25.0625 198.46875 L 9.46875 85.113281 L 215.375 147.835938 Z M 180.84375 261.195312"/></clipPath><clipPath id="B"><path d="M 180.84375 261.195312 L -25.0625 198.46875 L 9.46875 85.113281 L 215.375 147.835938 Z M 180.84375 261.195312"/></clipPath><clipPath id="C"><path d="M 180.84375 261.195312 L -25.0625 198.46875 L 9.46875 85.113281 L 215.375 147.835938 Z M 180.84375 261.195312"/></clipPath><clipPath id="D"><path d="M 32 203 L 104 203 L 104 222 L 32 222 Z M 32 203"/></clipPath><clipPath id="E"><path d="M 180.84375 261.195312 L -25.0625 198.46875 L 9.46875 85.113281 L 215.375 147.835938 Z M 180.84375 261.195312"/></clipPath><clipPath id="F"><path d="M 180.84375 261.195312 L -25.0625 198.46875 L 9.46875 85.113281 L 215.375 147.835938 Z M 180.84375 261.195312"/></clipPath><clipPath id="G"><path d="M 180.84375 261.195312 L -25.0625 198.46875 L 9.46875 85.113281 L 215.375 147.835938 Z M 180.84375 261.195312"/></clipPath><clipPath id="H"><path d="M 28 189 L 65 189 L 65 196 L 28 196 Z M 28 189"/></clipPath><clipPath id="I"><path d="M 180.84375 261.195312 L -25.0625 198.46875 L 9.46875 85.113281 L 215.375 147.835938 Z M 180.84375 261.195312"/></clipPath><clipPath id="J"><path d="M 180.84375 261.195312 L -25.0625 198.46875 L 9.46875 85.113281 L 215.375 147.835938 Z M 180.84375 261.195312"/></clipPath><clipPath id="K"><path d="M 180.84375 261.195312 L -25.0625 198.46875 L 9.46875 85.113281 L 215.375 147.835938 Z M 180.84375 261.195312"/></clipPath><clipPath id="L"><path d="M 26 186 L 67 186 L 67 198 L 26 198 Z M 26 186"/></clipPath><clipPath id="M"><path d="M 180.84375 261.195312 L -25.0625 198.46875 L 9.46875 85.113281 L 215.375 147.835938 Z M 180.84375 261.195312"/></clipPath><clipPath id="N"><path d="M 180.84375 261.195312 L -25.0625 198.46875 L 9.46875 85.113281 L 215.375 147.835938 Z M 180.84375 261.195312"/></clipPath><clipPath id="O"><path d="M 180.84375 261.195312 L -25.0625 198.46875 L 9.46875 85.113281 L 215.375 147.835938 Z M 180.84375 261.195312"/></clipPath><clipPath id="P"><path d="M 64 119 L 88 119 L 88 127 L 64 127 Z M 64 119"/></clipPath><clipPath id="Q"><path d="M 180.84375 261.195312 L -25.0625 198.46875 L 9.46875 85.113281 L 215.375 147.835938 Z M 180.84375 261.195312"/></clipPath><clipPath id="R"><path d="M 180.84375 261.195312 L -25.0625 198.46875 L 9.46875 85.113281 L 215.375 147.835938 Z M 180.84375 261.195312"/></clipPath><clipPath id="S"><path d="M 180.84375 261.195312 L -25.0625 198.46875 L 9.46875 85.113281 L 215.375 147.835938 Z M 180.84375 261.195312"/></clipPath><clipPath id="T"><path d="M 60 118 L 90 118 L 90 127 L 60 127 Z M 60 118"/></clipPath><clipPath id="U"><path d="M 180.84375 261.195312 L -25.0625 198.46875 L 9.46875 85.113281 L 215.375 147.835938 Z M 180.84375 261.195312"/></clipPath><clipPath id="V"><path d="M 180.84375 261.195312 L -25.0625 198.46875 L 9.46875 85.113281 L 215.375 147.835938 Z M 180.84375 261.195312"/></clipPath><clipPath id="W"><path d="M 180.84375 261.195312 L -25.0625 198.46875 L 9.46875 85.113281 L 215.375 147.835938 Z M 180.84375 261.195312"/></clipPath><clipPath id="X"><path d="M 173 204 L 174 204 L 174 205 L 173 205 Z M 173 204"/></clipPath><clipPath id="Y"><path d="M 180.84375 261.195312 L -25.0625 198.46875 L 9.46875 85.113281 L 215.375 147.835938 Z M 180.84375 261.195312"/></clipPath><clipPath id="Z"><path d="M 180.84375 261.195312 L -25.0625 198.46875 L 9.46875 85.113281 L 215.375 147.835938 Z M 180.84375 261.195312"/></clipPath><clipPath id="aa"><path d="M 180.84375 261.195312 L -25.0625 198.46875 L 9.46875 85.113281 L 215.375 147.835938 Z M 180.84375 261.195312"/></clipPath><clipPath id="ab"><path d="M 109 163 L 177 163 L 177 202 L 109 202 Z M 109 163"/></clipPath><clipPath id="ac"><path d="M 180.84375 261.195312 L -25.0625 198.46875 L 9.46875 85.113281 L 215.375 147.835938 Z M 180.84375 261.195312"/></clipPath><clipPath id="ad"><path d="M 180.84375 261.195312 L -25.0625 198.46875 L 9.46875 85.113281 L 215.375 147.835938 Z M 180.84375 261.195312"/></clipPath><clipPath id="ae"><path d="M 180.84375 261.195312 L -25.0625 198.46875 L 9.46875 85.113281 L 215.375 147.835938 Z M 180.84375 261.195312"/></clipPath><clipPath id="af"><path d="M 107 162 L 178 162 L 178 203 L 107 203 Z M 107 162"/></clipPath><clipPath id="ag"><path d="M 180.84375 261.195312 L -25.0625 198.46875 L 9.46875 85.113281 L 215.375 147.835938 Z M 180.84375 261.195312"/></clipPath><clipPath id="ah"><path d="M 180.84375 261.195312 L -25.0625 198.46875 L 9.46875 85.113281 L 215.375 147.835938 Z M 180.84375 261.195312"/></clipPath><clipPath id="ai"><path d="M 180.84375 261.195312 L -25.0625 198.46875 L 9.46875 85.113281 L 215.375 147.835938 Z M 180.84375 261.195312"/></clipPath><clipPath id="aj"><path d="M 73 162 L 111 162 L 111 173 L 73 173 Z M 73 162"/></clipPath><clipPath id="ak"><path d="M 180.84375 261.195312 L -25.0625 198.46875 L 9.46875 85.113281 L 215.375 147.835938 Z M 180.84375 261.195312"/></clipPath><clipPath id="al"><path d="M 180.84375 261.195312 L -25.0625 198.46875 L 9.46875 85.113281 L 215.375 147.835938 Z M 180.84375 261.195312"/></clipPath><clipPath id="am"><path d="M 180.84375 261.195312 L -25.0625 198.46875 L 9.46875 85.113281 L 215.375 147.835938 Z M 180.84375 261.195312"/></clipPath><clipPath id="an"><path d="M 71 161 L 112 161 L 112 175 L 71 175 Z M 71 161"/></clipPath><clipPath id="ao"><path d="M 180.84375 261.195312 L -25.0625 198.46875 L 9.46875 85.113281 L 215.375 147.835938 Z M 180.84375 261.195312"/></clipPath><clipPath id="ap"><path d="M 180.84375 261.195312 L -25.0625 198.46875 L 9.46875 85.113281 L 215.375 147.835938 Z M 180.84375 261.195312"/></clipPath><clipPath id="aq"><path d="M 180.84375 261.195312 L -25.0625 198.46875 L 9.46875 85.113281 L 215.375 147.835938 Z M 180.84375 261.195312"/></clipPath><clipPath id="ar"><path d="M 0 186 L 200 186 L 200 291 L 0 291 Z M 0 186"/></clipPath><clipPath id="as"><path d="M 180.921875 315.585938 L -27.734375 262.722656 L 1.367188 147.851562 L 210.027344 200.71875 Z M 180.921875 315.585938"/></clipPath><clipPath id="at"><path d="M 180.921875 315.585938 L -27.734375 262.722656 L 1.367188 147.851562 L 210.027344 200.71875 Z M 180.921875 315.585938"/></clipPath><clipPath id="au"><path d="M 180.921875 315.585938 L -27.734375 262.722656 L 1.367188 147.851562 L 210.027344 200.71875 Z M 180.921875 315.585938"/></clipPath><clipPath id="av"><path d="M 0 184 L 202 184 L 202 293 L 0 293 Z M 0 184"/></clipPath><clipPath id="aw"><path d="M 180.921875 315.585938 L -27.734375 262.722656 L 1.367188 147.851562 L 210.027344 200.71875 Z M 180.921875 315.585938"/></clipPath><clipPath id="ax"><path d="M 180.921875 315.585938 L -27.734375 262.722656 L 1.367188 147.851562 L 210.027344 200.71875 Z M 180.921875 315.585938"/></clipPath><clipPath id="ay"><path d="M 180.921875 315.585938 L -27.734375 262.722656 L 1.367188 147.851562 L 210.027344 200.71875 Z M 180.921875 315.585938"/></clipPath><clipPath id="az"><path d="M 130 185 L 157 185 L 157 195 L 130 195 Z M 130 185"/></clipPath><clipPath id="aA"><path d="M 180.921875 315.585938 L -27.734375 262.722656 L 1.367188 147.851562 L 210.027344 200.71875 Z M 180.921875 315.585938"/></clipPath><clipPath id="aB"><path d="M 180.921875 315.585938 L -27.734375 262.722656 L 1.367188 147.851562 L 210.027344 200.71875 Z M 180.921875 315.585938"/></clipPath><clipPath id="aC"><path d="M 180.921875 315.585938 L -27.734375 262.722656 L 1.367188 147.851562 L 210.027344 200.71875 Z M 180.921875 315.585938"/></clipPath><clipPath id="aD"><path d="M 129 184 L 161 184 L 161 196 L 129 196 Z M 129 184"/></clipPath><clipPath id="aE"><path d="M 180.921875 315.585938 L -27.734375 262.722656 L 1.367188 147.851562 L 210.027344 200.71875 Z M 180.921875 315.585938"/></clipPath><clipPath id="aF"><path d="M 180.921875 315.585938 L -27.734375 262.722656 L 1.367188 147.851562 L 210.027344 200.71875 Z M 180.921875 315.585938"/></clipPath><clipPath id="aG"><path d="M 180.921875 315.585938 L -27.734375 262.722656 L 1.367188 147.851562 L 210.027344 200.71875 Z M 180.921875 315.585938"/></clipPath><clipPath id="aH"><path d="M 0 211 L 32 211 L 32 223 L 0 223 Z M 0 211"/></clipPath><clipPath id="aI"><path d="M 180.921875 315.585938 L -27.734375 262.722656 L 1.367188 147.851562 L 210.027344 200.71875 Z M 180.921875 315.585938"/></clipPath><clipPath id="aJ"><path d="M 180.921875 315.585938 L -27.734375 262.722656 L 1.367188 147.851562 L 210.027344 200.71875 Z M 180.921875 315.585938"/></clipPath><clipPath id="aK"><path d="M 180.921875 315.585938 L -27.734375 262.722656 L 1.367188 147.851562 L 210.027344 200.71875 Z M 180.921875 315.585938"/></clipPath><clipPath id="aL"><path d="M 0 210 L 33 210 L 33 224 L 0 224 Z M 0 210"/></clipPath><clipPath id="aM"><path d="M 180.921875 315.585938 L -27.734375 262.722656 L 1.367188 147.851562 L 210.027344 200.71875 Z M 180.921875 315.585938"/></clipPath><clipPath id="aN"><path d="M 180.921875 315.585938 L -27.734375 262.722656 L 1.367188 147.851562 L 210.027344 200.71875 Z M 180.921875 315.585938"/></clipPath><clipPath id="aO"><path d="M 180.921875 315.585938 L -27.734375 262.722656 L 1.367188 147.851562 L 210.027344 200.71875 Z M 180.921875 315.585938"/></clipPath><clipPath id="aP"><path d="M 39 264 L 98 264 L 98 281 L 39 281 Z M 39 264"/></clipPath><clipPath id="aQ"><path d="M 180.921875 315.585938 L -27.734375 262.722656 L 1.367188 147.851562 L 210.027344 200.71875 Z M 180.921875 315.585938"/></clipPath><clipPath id="aR"><path d="M 180.921875 315.585938 L -27.734375 262.722656 L 1.367188 147.851562 L 210.027344 200.71875 Z M 180.921875 315.585938"/></clipPath><clipPath id="aS"><path d="M 180.921875 315.585938 L -27.734375 262.722656 L 1.367188 147.851562 L 210.027344 200.71875 Z M 180.921875 315.585938"/></clipPath><clipPath id="aT"><path d="M 30 263 L 102 263 L 102 282 L 30 282 Z M 30 263"/></clipPath><clipPath id="aU"><path d="M 180.921875 315.585938 L -27.734375 262.722656 L 1.367188 147.851562 L 210.027344 200.71875 Z M 180.921875 315.585938"/></clipPath><clipPath id="aV"><path d="M 180.921875 315.585938 L -27.734375 262.722656 L 1.367188 147.851562 L 210.027344 200.71875 Z M 180.921875 315.585938"/></clipPath><clipPath id="aW"><path d="M 180.921875 315.585938 L -27.734375 262.722656 L 1.367188 147.851562 L 210.027344 200.71875 Z M 180.921875 315.585938"/></clipPath><clipPath id="aX"><path d="M 25 249 L 62 249 L 62 258 L 25 258 Z M 25 249"/></clipPath><clipPath id="aY"><path d="M 180.921875 315.585938 L -27.734375 262.722656 L 1.367188 147.851562 L 210.027344 200.71875 Z M 180.921875 315.585938"/></clipPath><clipPath id="aZ"><path d="M 180.921875 315.585938 L -27.734375 262.722656 L 1.367188 147.851562 L 210.027344 200.71875 Z M 180.921875 315.585938"/></clipPath><clipPath id="ba"><path d="M 180.921875 315.585938 L -27.734375 262.722656 L 1.367188 147.851562 L 210.027344 200.71875 Z M 180.921875 315.585938"/></clipPath><clipPath id="bb"><path d="M 23 246 L 64 246 L 64 260 L 23 260 Z M 23 246"/></clipPath><clipPath id="bc"><path d="M 180.921875 315.585938 L -27.734375 262.722656 L 1.367188 147.851562 L 210.027344 200.71875 Z M 180.921875 315.585938"/></clipPath><clipPath id="bd"><path d="M 180.921875 315.585938 L -27.734375 262.722656 L 1.367188 147.851562 L 210.027344 200.71875 Z M 180.921875 315.585938"/></clipPath><clipPath id="be"><path d="M 180.921875 315.585938 L -27.734375 262.722656 L 1.367188 147.851562 L 210.027344 200.71875 Z M 180.921875 315.585938"/></clipPath><clipPath id="bf"><path d="M 57 179 L 82 179 L 82 186 L 57 186 Z M 57 179"/></clipPath><clipPath id="bg"><path d="M 180.921875 315.585938 L -27.734375 262.722656 L 1.367188 147.851562 L 210.027344 200.71875 Z M 180.921875 315.585938"/></clipPath><clipPath id="bh"><path d="M 180.921875 315.585938 L -27.734375 262.722656 L 1.367188 147.851562 L 210.027344 200.71875 Z M 180.921875 315.585938"/></clipPath><clipPath id="bi"><path d="M 180.921875 315.585938 L -27.734375 262.722656 L 1.367188 147.851562 L 210.027344 200.71875 Z M 180.921875 315.585938"/></clipPath><clipPath id="bj"><path d="M 54 178 L 84 178 L 84 187 L 54 187 Z M 54 178"/></clipPath><clipPath id="bk"><path d="M 180.921875 315.585938 L -27.734375 262.722656 L 1.367188 147.851562 L 210.027344 200.71875 Z M 180.921875 315.585938"/></clipPath><clipPath id="bl"><path d="M 180.921875 315.585938 L -27.734375 262.722656 L 1.367188 147.851562 L 210.027344 200.71875 Z M 180.921875 315.585938"/></clipPath><clipPath id="bm"><path d="M 180.921875 315.585938 L -27.734375 262.722656 L 1.367188 147.851562 L 210.027344 200.71875 Z M 180.921875 315.585938"/></clipPath><clipPath id="bn"><path d="M 170 258 L 171 258 L 171 260 L 170 260 Z M 170 258"/></clipPath><clipPath id="bo"><path d="M 180.921875 315.585938 L -27.734375 262.722656 L 1.367188 147.851562 L 210.027344 200.71875 Z M 180.921875 315.585938"/></clipPath><clipPath id="bp"><path d="M 180.921875 315.585938 L -27.734375 262.722656 L 1.367188 147.851562 L 210.027344 200.71875 Z M 180.921875 315.585938"/></clipPath><clipPath id="bq"><path d="M 180.921875 315.585938 L -27.734375 262.722656 L 1.367188 147.851562 L 210.027344 200.71875 Z M 180.921875 315.585938"/></clipPath><clipPath id="br"><path d="M 105 219 L 174 219 L 174 257 L 105 257 Z M 105 219"/></clipPath><clipPath id="bs"><path d="M 180.921875 315.585938 L -27.734375 262.722656 L 1.367188 147.851562 L 210.027344 200.71875 Z M 180.921875 315.585938"/></clipPath><clipPath id="bt"><path d="M 180.921875 315.585938 L -27.734375 262.722656 L 1.367188 147.851562 L 210.027344 200.71875 Z M 180.921875 315.585938"/></clipPath><clipPath id="bu"><path d="M 180.921875 315.585938 L -27.734375 262.722656 L 1.367188 147.851562 L 210.027344 200.71875 Z M 180.921875 315.585938"/></clipPath><clipPath id="bv"><path d="M 103 218 L 175 218 L 175 258 L 103 258 Z M 103 218"/></clipPath><clipPath id="bw"><path d="M 180.921875 315.585938 L -27.734375 262.722656 L 1.367188 147.851562 L 210.027344 200.71875 Z M 180.921875 315.585938"/></clipPath><clipPath id="bx"><path d="M 180.921875 315.585938 L -27.734375 262.722656 L 1.367188 147.851562 L 210.027344 200.71875 Z M 180.921875 315.585938"/></clipPath><clipPath id="by"><path d="M 180.921875 315.585938 L -27.734375 262.722656 L 1.367188 147.851562 L 210.027344 200.71875 Z M 180.921875 315.585938"/></clipPath><clipPath id="bz"><path d="M 69 220 L 106 220 L 106 233 L 69 233 Z M 69 220"/></clipPath><clipPath id="bA"><path d="M 180.921875 315.585938 L -27.734375 262.722656 L 1.367188 147.851562 L 210.027344 200.71875 Z M 180.921875 315.585938"/></clipPath><clipPath id="bB"><path d="M 180.921875 315.585938 L -27.734375 262.722656 L 1.367188 147.851562 L 210.027344 200.71875 Z M 180.921875 315.585938"/></clipPath><clipPath id="bC"><path d="M 180.921875 315.585938 L -27.734375 262.722656 L 1.367188 147.851562 L 210.027344 200.71875 Z M 180.921875 315.585938"/></clipPath><clipPath id="bD"><path d="M 67 218 L 107 218 L 107 235 L 67 235 Z M 67 218"/></clipPath><clipPath id="bE"><path d="M 180.921875 315.585938 L -27.734375 262.722656 L 1.367188 147.851562 L 210.027344 200.71875 Z M 180.921875 315.585938"/></clipPath><clipPath id="bF"><path d="M 180.921875 315.585938 L -27.734375 262.722656 L 1.367188 147.851562 L 210.027344 200.71875 Z M 180.921875 315.585938"/></clipPath><clipPath id="bG"><path d="M 180.921875 315.585938 L -27.734375 262.722656 L 1.367188 147.851562 L 210.027344 200.71875 Z M 180.921875 315.585938"/></clipPath><clipPath id="bH"><path d="M 123.742188 80.621094 L 337.492188 80.621094 L 337.492188 294.371094 L 123.742188 294.371094 Z M 123.742188 80.621094"/></clipPath><clipPath id="bI"><path d="M 123.742188 80.621094 L 337.492188 80.621094 L 337.492188 294.371094 L 123.742188 294.371094 Z M 123.742188 80.621094"/></clipPath><clipPath id="bJ"><path d="M 123.742188 80.621094 L 337.492188 80.621094 L 337.492188 294.371094 L 123.742188 294.371094 Z M 123.742188 80.621094"/></clipPath><clipPath id="bK"><path d="M 204 160 L 257 160 L 257 215 L 204 215 Z M 204 160"/></clipPath><clipPath id="bL"><path d="M 256.898438 187.488281 C 256.898438 202.445312 245.148438 214.570312 230.652344 214.570312 C 216.15625 214.570312 204.40625 202.445312 204.40625 187.488281 C 204.40625 172.527344 216.15625 160.402344 230.652344 160.402344 C 245.148438 160.402344 256.898438 172.527344 256.898438 187.488281 Z M 256.898438 187.488281"/></clipPath><clipPath id="bN"><path d="M 212 168 L 250 168 L 250 207 L 212 207 Z M 212 168"/></clipPath><clipPath id="bO"><path d="M 249.289062 187.550781 C 249.289062 198.171875 240.945312 206.78125 230.652344 206.78125 C 220.359375 206.78125 212.011719 198.171875 212.011719 187.550781 C 212.011719 176.929688 220.359375 168.320312 230.652344 168.320312 C 240.945312 168.320312 249.289062 176.929688 249.289062 187.550781 Z M 249.289062 187.550781"/></clipPath><radialGradient gradientTransform="matrix(1.0042 0 0 .9958 -928.384 -1563.324)" xmlns:xlink="http://www.w3.org/1999/xlink" gradientUnits="userSpaceOnUse" xlink:type="simple" r="18.56" xlink:actuate="onLoad" cx="1154.191" id="bP" cy="1758.252" xlink:show="other" fx="1154.191" fy="1758.252"><stop stop-color="#262525" offset="0"/><stop stop-color="#272624" offset=".004"/><stop stop-color="#292624" offset=".008"/><stop stop-color="#2A2724" offset=".012"/><stop stop-color="#2C2723" offset=".016"/><stop stop-color="#2D2823" offset=".02"/><stop stop-color="#2F2822" offset=".023"/><stop stop-color="#302922" offset=".027"/><stop stop-color="#322922" offset=".031"/><stop stop-color="#332A21" offset=".035"/><stop stop-color="#352B21" offset=".039"/><stop stop-color="#362B20" offset=".043"/><stop stop-color="#382C20" offset=".047"/><stop stop-color="#392C20" offset=".051"/><stop stop-color="#3B2D1F" offset=".055"/><stop stop-color="#3C2D1F" offset=".059"/><stop stop-color="#3E2E1E" offset=".063"/><stop stop-color="#3F2E1E" offset=".066"/><stop stop-color="#412F1E" offset=".07"/><stop stop-color="#422F1D" offset=".074"/><stop stop-color="#44301D" offset=".078"/><stop stop-color="#45301D" offset=".082"/><stop stop-color="#47311C" offset=".086"/><stop stop-color="#48311C" offset=".09"/><stop stop-color="#4A321B" offset=".094"/><stop stop-color="#4B321B" offset=".098"/><stop stop-color="#4D331B" offset=".102"/><stop stop-color="#4E331A" offset=".105"/><stop stop-color="#50341A" offset=".109"/><stop stop-color="#513519" offset=".113"/><stop stop-color="#533519" offset=".117"/><stop stop-color="#543619" offset=".121"/><stop stop-color="#563618" offset=".125"/><stop stop-color="#573718" offset=".129"/><stop stop-color="#593717" offset=".133"/><stop stop-color="#5A3817" offset=".137"/><stop stop-color="#5C3817" offset=".141"/><stop stop-color="#5D3916" offset=".145"/><stop stop-color="#5F3916" offset=".148"/><stop stop-color="#603A15" offset=".152"/><stop stop-color="#623A15" offset=".156"/><stop stop-color="#633B15" offset=".16"/><stop stop-color="#653B14" offset=".164"/><stop stop-color="#663C14" offset=".168"/><stop stop-color="#683C13" offset=".172"/><stop stop-color="#693D13" offset=".176"/><stop stop-color="#6B3D13" offset=".18"/><stop stop-color="#6C3E12" offset=".184"/><stop stop-color="#6E3F12" offset=".188"/><stop stop-color="#6F3F12" offset=".191"/><stop stop-color="#714011" offset=".195"/><stop stop-color="#724011" offset=".199"/><stop stop-color="#744110" offset=".203"/><stop stop-color="#744110" offset=".207"/><stop stop-color="#744111" offset=".219"/><stop stop-color="#734111" offset=".223"/><stop stop-color="#734111" offset=".227"/><stop stop-color="#734111" offset=".23"/><stop stop-color="#724111" offset=".234"/><stop stop-color="#724112" offset=".238"/><stop stop-color="#724112" offset=".242"/><stop stop-color="#714112" offset=".246"/><stop stop-color="#714112" offset=".25"/><stop stop-color="#704113" offset=".254"/><stop stop-color="#6F4013" offset=".262"/><stop stop-color="#6F4013" offset=".27"/><stop stop-color="#6E4014" offset=".277"/><stop stop-color="#6D4014" offset=".285"/><stop stop-color="#6C4014" offset=".293"/><stop stop-color="#6C4015" offset=".301"/><stop stop-color="#6B4015" offset=".309"/><stop stop-color="#6A4016" offset=".316"/><stop stop-color="#694016" offset=".324"/><stop stop-color="#694016" offset=".332"/><stop stop-color="#684017" offset=".34"/><stop stop-color="#674017" offset=".348"/><stop stop-color="#664017" offset=".355"/><stop stop-color="#664018" offset=".363"/><stop stop-color="#653F18" offset=".371"/><stop stop-color="#643F19" offset=".379"/><stop stop-color="#633F19" offset=".387"/><stop stop-color="#633F19" offset=".395"/><stop stop-color="#623F1A" offset=".402"/><stop stop-color="#613F1A" offset=".41"/><stop stop-color="#603F1B" offset=".418"/><stop stop-color="#603F1B" offset=".426"/><stop stop-color="#5F3F1B" offset=".434"/><stop stop-color="#5E3F1C" offset=".441"/><stop stop-color="#5D3F1C" offset=".449"/><stop stop-color="#5D3F1C" offset=".457"/><stop stop-color="#5C3F1D" offset=".465"/><stop stop-color="#5B3E1D" offset=".473"/><stop stop-color="#5A3E1E" offset=".48"/><stop stop-color="#5A3E1E" offset=".488"/><stop stop-color="#593E1E" offset=".496"/><stop stop-color="#583E1F" offset=".504"/><stop stop-color="#583E1F" offset=".508"/><stop stop-color="#583E1F" offset=".512"/><stop stop-color="#573E1F" offset=".516"/><stop stop-color="#573E1F" offset=".52"/><stop stop-color="#563E20" offset=".523"/><stop stop-color="#563E20" offset=".527"/><stop stop-color="#553E20" offset=".531"/><stop stop-color="#543D20" offset=".535"/><stop stop-color="#533D21" offset=".539"/><stop stop-color="#523D21" offset=".543"/><stop stop-color="#523C21" offset=".547"/><stop stop-color="#513C22" offset=".551"/><stop stop-color="#503B22" offset=".555"/><stop stop-color="#4F3B22" offset=".559"/><stop stop-color="#4E3B23" offset=".563"/><stop stop-color="#4D3A23" offset=".566"/><stop stop-color="#4C3A23" offset=".57"/><stop stop-color="#4B3A24" offset=".574"/><stop stop-color="#4A3924" offset=".578"/><stop stop-color="#493924" offset=".582"/><stop stop-color="#493825" offset=".586"/><stop stop-color="#483825" offset=".59"/><stop stop-color="#473825" offset=".594"/><stop stop-color="#463726" offset=".598"/><stop stop-color="#453726" offset=".602"/><stop stop-color="#443626" offset=".605"/><stop stop-color="#433627" offset=".609"/><stop stop-color="#423627" offset=".613"/><stop stop-color="#413527" offset=".617"/><stop stop-color="#403528" offset=".621"/><stop stop-color="#403528" offset=".625"/><stop stop-color="#3F3428" offset=".629"/><stop stop-color="#3E3429" offset=".633"/><stop stop-color="#3D3329" offset=".637"/><stop stop-color="#3C3329" offset=".641"/><stop stop-color="#3B332A" offset=".645"/><stop stop-color="#3A322A" offset=".648"/><stop stop-color="#39322A" offset=".652"/><stop stop-color="#38322B" offset=".656"/><stop stop-color="#37312B" offset=".66"/><stop stop-color="#37312B" offset=".664"/><stop stop-color="#36302C" offset=".668"/><stop stop-color="#35302C" offset=".672"/><stop stop-color="#34302C" offset=".676"/><stop stop-color="#332F2D" offset=".68"/><stop stop-color="#322F2D" offset=".684"/><stop stop-color="#312E2D" offset=".703"/><stop stop-color="#302E2C" offset=".738"/><stop stop-color="#302D2C" offset=".77"/><stop stop-color="#2F2D2C" offset=".797"/><stop stop-color="#2F2D2B" offset=".82"/><stop stop-color="#2E2C2B" offset=".863"/><stop stop-color="#2D2C2B" offset=".895"/><stop stop-color="#2C2B2B" offset=".918"/><stop stop-color="#2C2A2A" offset=".957"/><stop stop-color="#2B2A2A" offset="1"/></radialGradient><linearGradient x1="526.211" gradientTransform="matrix(3.05202 0 0 3.02664 -1401.602 -2278.348)" xmlns:xlink="http://www.w3.org/1999/xlink" y1="0" x2="543.41" gradientUnits="userSpaceOnUse" y2="0" xlink:type="simple" xlink:actuate="onLoad" id="bM" xlink:show="other"><stop stop-color="#5E5E5E" offset="0"/><stop stop-color="#5E5E5E" offset=".016"/><stop stop-color="#5F5F5F" offset=".031"/><stop stop-color="#606060" offset=".047"/><stop stop-color="#606060" offset=".063"/><stop stop-color="#616161" offset=".078"/><stop stop-color="#626262" offset=".094"/><stop stop-color="#626262" offset=".109"/><stop stop-color="#636363" offset=".125"/><stop stop-color="#646464" offset=".141"/><stop stop-color="#646464" offset=".156"/><stop stop-color="#656565" offset=".172"/><stop stop-color="#666" offset=".188"/><stop stop-color="#666" offset=".203"/><stop stop-color="#676767" offset=".219"/><stop stop-color="#686868" offset=".234"/><stop stop-color="#686868" offset=".25"/><stop stop-color="#696969" offset=".266"/><stop stop-color="#6A6A6A" offset=".281"/><stop stop-color="#6A6A6A" offset=".297"/><stop stop-color="#6B6B6B" offset=".313"/><stop stop-color="#6C6C6C" offset=".328"/><stop stop-color="#6C6C6C" offset=".344"/><stop stop-color="#6D6D6D" offset=".359"/><stop stop-color="#6E6E6E" offset=".375"/><stop stop-color="#6E6E6E" offset=".391"/><stop stop-color="#6F6F6F" offset=".406"/><stop stop-color="#707070" offset=".422"/><stop stop-color="#717171" offset=".438"/><stop stop-color="#717171" offset=".453"/><stop stop-color="#727272" offset=".469"/><stop stop-color="#737373" offset=".484"/><stop stop-color="#737373" offset=".5"/><stop stop-color="#747474" offset=".516"/><stop stop-color="#757575" offset=".531"/><stop stop-color="#757575" offset=".547"/><stop stop-color="#767676" offset=".563"/><stop stop-color="#777" offset=".578"/><stop stop-color="#777" offset=".594"/><stop stop-color="#787878" offset=".609"/><stop stop-color="#797979" offset=".625"/><stop stop-color="#797979" offset=".641"/><stop stop-color="#7A7A7A" offset=".656"/><stop stop-color="#7B7B7B" offset=".672"/><stop stop-color="#7B7B7B" offset=".688"/><stop stop-color="#7C7C7C" offset=".703"/><stop stop-color="#7D7D7D" offset=".719"/><stop stop-color="#7D7D7D" offset=".734"/><stop stop-color="#7E7E7E" offset=".75"/><stop stop-color="#7F7F7F" offset=".766"/><stop stop-color="#7F7F7F" offset=".781"/><stop stop-color="#808080" offset=".797"/><stop stop-color="#818181" offset=".813"/><stop stop-color="#818181" offset=".828"/><stop stop-color="#828282" offset=".844"/><stop stop-color="#838383" offset=".859"/><stop stop-color="#838383" offset=".875"/><stop stop-color="#848484" offset=".891"/><stop stop-color="#858585" offset=".906"/><stop stop-color="#858585" offset=".922"/><stop stop-color="#868686" offset=".938"/><stop stop-color="#878787" offset=".953"/><stop stop-color="#878787" offset=".969"/><stop stop-color="#888" offset=".984"/><stop stop-color="#898989" offset="1"/></linearGradient></defs><path fill="#FFF" d="M-37.5 -37.5H412.5V412.5H-37.5z"/><path fill="#FFF" d="M-37.5 -37.5H412.5V412.5H-37.5z"/><path d="M-37.5 -37.5H412.5V412.5H-37.5z"/><path fill="#FFF" d="M 118.335938 191.207031 C 120.28125 191.152344 121.789062 189.503906 121.734375 187.582031 C 121.679688 185.632812 120.0625 184.125 118.144531 184.179688 L -4.683594 187.691406 L 118.144531 191.207031 C 118.199219 191.207031 118.28125 191.207031 118.335938 191.207031"/><path fill="#FFF" d="M 148.480469 225.738281 C 150.398438 225.65625 151.933594 224.0625 151.878906 222.113281 C 151.824219 220.164062 150.207031 218.628906 148.261719 218.710938 L 25.460938 222.222656 L 148.261719 225.738281 C 148.34375 225.738281 148.398438 225.738281 148.480469 225.738281"/><path fill="#FFF" d="M 148.480469 156.648438 C 150.398438 156.59375 151.933594 154.972656 151.878906 153.050781 C 151.824219 151.101562 150.207031 149.566406 148.261719 149.621094 L 25.460938 153.132812 L 148.261719 156.648438 C 148.34375 156.648438 148.398438 156.648438 148.480469 156.648438"/><g clip-path="url(#a)"><path fill="#FFF" d="M 232.722656 70.59375 C 188.792969 70.59375 148.972656 94.886719 128.804688 134 C 127.929688 135.703125 128.585938 137.84375 130.3125 138.722656 C 132.011719 139.601562 134.148438 138.941406 135.027344 137.214844 C 153.988281 100.457031 191.425781 77.621094 232.722656 77.621094 C 293.285156 77.621094 342.585938 127.003906 342.585938 187.691406 C 342.585938 248.355469 293.285156 297.738281 232.722656 297.738281 C 190.792969 297.738281 153.085938 274.378906 134.339844 236.800781 C 133.492188 235.042969 131.378906 234.355469 129.65625 235.207031 C 127.902344 236.085938 127.214844 238.199219 128.066406 239.929688 C 148.015625 279.921875 188.109375 304.765625 232.722656 304.765625 C 297.179688 304.765625 349.601562 252.253906 349.601562 187.691406 C 349.601562 123.132812 297.179688 70.59375 232.722656 70.59375"/></g><path fill="#FFF" d="M 229.214844 179.210938 L 194.328125 144.269531 C 203.757812 135.894531 215.839844 130.597656 229.214844 129.773438 Z M 236.230469 179.210938 L 236.230469 129.773438 C 249.546875 130.597656 261.6875 135.894531 271.089844 144.269531 Z M 236.230469 196.148438 L 271.089844 231.089844 C 261.6875 239.460938 249.546875 244.785156 236.230469 245.582031 Z M 229.214844 245.582031 C 215.839844 244.785156 203.757812 239.460938 194.328125 231.089844 L 229.214844 196.148438 Z M 276.050781 226.121094 L 241.164062 191.207031 L 290.519531 191.207031 C 289.722656 204.546875 284.40625 216.707031 276.050781 226.121094 Z M 290.519531 184.179688 L 241.164062 184.179688 L 276.050781 149.234375 C 284.40625 158.652344 289.722656 170.8125 290.519531 184.179688 Z M 189.367188 149.234375 L 224.253906 184.179688 L 174.898438 184.179688 C 175.722656 170.8125 181.011719 158.652344 189.367188 149.234375 Z M 174.898438 191.207031 L 224.253906 191.207031 L 189.367188 226.121094 C 181.011719 216.707031 175.722656 204.546875 174.898438 191.207031 Z M 186.902344 233.835938 C 198.6875 245.527344 214.855469 252.773438 232.722656 252.773438 C 250.5625 252.773438 266.757812 245.527344 278.488281 233.835938 C 278.542969 233.78125 278.625 233.78125 278.679688 233.726562 C 278.734375 233.671875 278.734375 233.613281 278.789062 233.53125 C 290.464844 221.785156 297.699219 205.5625 297.699219 187.691406 C 297.699219 169.796875 290.464844 153.601562 278.789062 141.824219 C 278.734375 141.769531 278.734375 141.6875 278.679688 141.632812 C 278.625 141.605469 278.542969 141.578125 278.488281 141.523438 C 266.730469 129.828125 250.5625 122.582031 232.722656 122.582031 C 214.855469 122.582031 198.6875 129.828125 186.929688 141.523438 C 186.875 141.578125 186.792969 141.605469 186.738281 141.632812 C 186.710938 141.6875 186.683594 141.742188 186.65625 141.796875 C 174.953125 153.574219 167.71875 169.796875 167.71875 187.691406 C 167.71875 205.5625 174.953125 221.785156 186.65625 233.53125 C 186.683594 233.613281 186.710938 233.671875 186.738281 233.726562 C 186.792969 233.78125 186.875 233.78125 186.902344 233.835938"/><g clip-path="url(#b)"><g clip-path="url(#c)"><g clip-path="url(#d)"><g clip-path="url(#e)"><path fill="#D8571E" d="M 4.300781 138.042969 C 8.175781 137.785156 11.90625 138.867188 15.4375 140.386719 C 20.355469 142.5 25.046875 145.386719 30.210938 146.851562 C 35.660156 148.402344 41.25 148.464844 46.839844 147.710938 C 54.582031 146.667969 61.925781 144.382812 69.730469 146.027344 C 73.96875 146.921875 80.964844 149.257812 80.1875 154.847656 C 79.796875 157.652344 77.371094 160.574219 75.054688 162.054688 C 72.550781 163.65625 69.53125 163.746094 66.667969 163.335938 C 62.011719 162.667969 55.132812 159.875 51.8125 163.777344 C 53.21875 163.15625 54.75 162.914062 56.195312 163.609375 C 57.988281 164.476562 58.921875 166.429688 58.578125 168.394531 C 57.453125 174.78125 49.761719 175.808594 44.714844 174.089844 C 41.542969 173.011719 38.496094 171.617188 35.304688 170.582031 C 31.3125 169.289062 27.226562 168.222656 23.0625 167.6875 C 19.027344 167.164062 15.007812 167.082031 11.023438 167.421875 C 12.851562 167.726562 14.664062 168.222656 16.4375 168.910156 C 22.144531 171.121094 27.21875 174.554688 32.453125 177.667969 C 40.109375 182.214844 49.269531 186.523438 58.375 183.992188 C 65.761719 181.9375 72.636719 177.992188 80.300781 176.933594 C 83.257812 176.527344 86.660156 176.410156 89.285156 178.082031 C 91.496094 179.488281 93.449219 182.132812 92.683594 184.894531 C 91.832031 187.960938 89.046875 190.167969 86.820312 192.246094 C 85.011719 193.933594 83.046875 195.753906 81.785156 197.917969 C 85.488281 193.839844 90.957031 191.023438 95.878906 189.273438 C 102.054688 187.070312 109.90625 185.566406 115.839844 189.21875 C 116.089844 189.371094 116.226562 189.714844 116.125 189.996094 C 115.011719 193.132812 111.765625 194.820312 108.769531 195.761719 C 108.082031 195.976562 107.367188 196.179688 106.648438 196.351562 C 107.070312 196.332031 107.488281 196.3125 107.902344 196.292969 C 111.445312 196.125 115 195.789062 118.550781 195.898438 C 123.273438 196.039062 129.800781 197.335938 129.003906 203.542969 C 128.238281 209.523438 121.671875 212.414062 116.597656 213.988281 C 112.261719 215.332031 107.621094 216.28125 103.015625 216.609375 C 108.605469 217.863281 114.472656 218.417969 120.121094 218.132812 C 124.863281 217.894531 128.675781 216.484375 132.828125 214.253906 C 136.621094 212.210938 140.363281 209.914062 144.445312 208.484375 C 147.71875 207.34375 151.570312 206.625 154.832031 208.238281 C 156.5625 209.089844 160.984375 211.015625 160.390625 213.703125 C 159.925781 215.800781 157.007812 216.628906 155.25 217.125 C 152.203125 217.980469 149.066406 218.425781 145.949219 218.898438 C 137.296875 220.210938 126.996094 223.515625 125.492188 233.050781 C 132.414062 224.535156 144.722656 222.671875 155.007812 221.445312 C 157.839844 221.105469 160.65625 220.75 163.503906 220.609375 C 166.8125 220.449219 170.164062 220.117188 173.328125 219.0625 C 176.699219 217.941406 179.960938 216.230469 182.628906 213.859375 C 183.652344 212.945312 184.824219 211.652344 186.128906 210.753906 C 185.824219 210.453125 185.722656 209.960938 186.148438 209.605469 C 188.179688 207.890625 188.566406 204.75 188.863281 202.265625 C 189.226562 199.253906 189.402344 196.21875 189.894531 193.21875 C 190.789062 187.753906 193.941406 183.867188 197.363281 179.695312 C 200.140625 176.308594 203.964844 172.136719 204.179688 167.503906 C 204.308594 164.710938 203.125 162.640625 201.132812 160.785156 C 196.5 156.464844 190.070312 154.015625 184.121094 152.167969 C 177.226562 150.027344 170.003906 148.554688 162.773438 148.3125 C 159.199219 148.1875 154.097656 147.996094 150.570312 149.890625 C 152.570312 150.210938 154.363281 151.167969 156.46875 151.871094 C 157.078125 152.074219 157.414062 152.992188 156.828125 153.4375 C 145.546875 161.976562 133.011719 149.851562 126.226562 141.242188 C 124.128906 138.574219 122.527344 135.460938 120.25 132.960938 C 117.703125 130.164062 114.542969 128.722656 110.742188 128.671875 C 106.367188 128.613281 94.105469 130.371094 95.484375 136.785156 C 97.125 134.738281 99.324219 132.796875 101.992188 132.863281 C 104.175781 132.917969 106.097656 134.304688 106.996094 136.289062 C 109.640625 142.140625 104.90625 146.90625 99.261719 147.625 C 88.457031 148.996094 80.578125 140.945312 71.394531 136.96875 C 68.703125 135.800781 65.679688 134.742188 62.703125 134.789062 C 60.039062 134.832031 57.46875 135.457031 54.921875 136.210938 C 49.964844 137.683594 45.082031 139.222656 39.859375 138.316406 C 34.570312 137.398438 29.585938 135.234375 24.300781 134.21875 C 20.472656 133.488281 16.542969 133.101562 12.644531 133.234375 C 5.695312 133.46875 -2.035156 135.390625 -5.570312 141.617188 C -2.5625 139.738281 0.722656 138.28125 4.300781 138.042969"/></g></g></g></g><g clip-path="url(#f)"><g clip-path="url(#g)"><g clip-path="url(#h)"><g clip-path="url(#i)"><path fill="#D8571E" d="M 12.644531 133.234375 C 16.542969 133.101562 20.472656 133.488281 24.300781 134.21875 C 29.585938 135.234375 34.570312 137.398438 39.859375 138.316406 C 45.082031 139.222656 49.964844 137.683594 54.921875 136.210938 C 57.46875 135.457031 60.039062 134.832031 62.703125 134.789062 C 65.679688 134.742188 68.703125 135.800781 71.394531 136.96875 C 80.578125 140.945312 88.457031 148.996094 99.261719 147.625 C 104.90625 146.90625 109.640625 142.140625 106.996094 136.289062 C 106.097656 134.304688 104.175781 132.917969 101.992188 132.863281 C 99.324219 132.796875 97.125 134.738281 95.484375 136.785156 C 94.105469 130.371094 106.367188 128.613281 110.742188 128.671875 C 114.542969 128.722656 117.703125 130.164062 120.25 132.960938 C 122.527344 135.460938 124.128906 138.574219 126.226562 141.242188 C 133.011719 149.851562 145.546875 161.976562 156.828125 153.4375 C 157.414062 152.992188 157.078125 152.074219 156.46875 151.871094 C 154.363281 151.167969 152.570312 150.210938 150.570312 149.890625 C 154.097656 147.996094 159.199219 148.1875 162.773438 148.3125 C 170.003906 148.554688 177.226562 150.027344 184.121094 152.167969 C 190.070312 154.015625 196.5 156.464844 201.132812 160.785156 C 203.125 162.640625 204.308594 164.710938 204.179688 167.503906 C 203.964844 172.136719 200.140625 176.308594 197.363281 179.695312 C 193.941406 183.867188 190.789062 187.753906 189.894531 193.21875 C 189.402344 196.21875 189.226562 199.253906 188.863281 202.265625 C 188.566406 204.75 188.179688 207.890625 186.148438 209.605469 C 185.722656 209.960938 185.824219 210.453125 186.128906 210.753906 C 184.824219 211.652344 183.652344 212.945312 182.628906 213.859375 C 179.960938 216.230469 176.699219 217.941406 173.328125 219.0625 C 170.164062 220.117188 166.8125 220.449219 163.503906 220.609375 C 160.65625 220.75 157.839844 221.105469 155.007812 221.445312 C 144.722656 222.671875 132.414062 224.535156 125.492188 233.050781 C 126.996094 223.515625 137.296875 220.210938 145.949219 218.898438 C 149.066406 218.425781 152.203125 217.980469 155.25 217.125 C 157.007812 216.628906 159.925781 215.800781 160.390625 213.703125 C 160.984375 211.015625 156.5625 209.089844 154.832031 208.238281 C 151.570312 206.625 147.71875 207.34375 144.445312 208.484375 C 140.363281 209.914062 136.621094 212.210938 132.828125 214.253906 C 128.675781 216.484375 124.863281 217.894531 120.121094 218.132812 C 114.472656 218.417969 108.605469 217.863281 103.015625 216.609375 C 107.621094 216.28125 112.261719 215.332031 116.597656 213.988281 C 121.671875 212.414062 128.238281 209.523438 129.003906 203.542969 C 129.800781 197.335938 123.273438 196.039062 118.550781 195.898438 C 115 195.789062 111.445312 196.125 107.902344 196.292969 C 107.488281 196.3125 107.070312 196.332031 106.648438 196.351562 C 107.367188 196.179688 108.082031 195.976562 108.769531 195.761719 C 111.765625 194.820312 115.011719 193.132812 116.125 189.996094 C 116.226562 189.714844 116.089844 189.371094 115.839844 189.21875 C 109.90625 185.566406 102.054688 187.070312 95.878906 189.273438 C 90.957031 191.023438 85.488281 193.839844 81.785156 197.917969 C 83.046875 195.753906 85.011719 193.933594 86.820312 192.246094 C 89.046875 190.167969 91.832031 187.960938 92.683594 184.894531 C 93.449219 182.132812 91.496094 179.488281 89.285156 178.082031 C 86.660156 176.410156 83.257812 176.527344 80.300781 176.933594 C 72.636719 177.992188 65.761719 181.9375 58.375 183.992188 C 49.269531 186.523438 40.109375 182.214844 32.453125 177.667969 C 27.21875 174.554688 22.144531 171.121094 16.4375 168.910156 C 14.664062 168.222656 12.851562 167.726562 11.023438 167.421875 C 15.007812 167.082031 19.027344 167.164062 23.0625 167.6875 C 27.226562 168.222656 31.3125 169.289062 35.304688 170.582031 C 38.496094 171.617188 41.542969 173.011719 44.714844 174.089844 C 49.761719 175.808594 57.453125 174.78125 58.578125 168.394531 C 58.921875 166.429688 57.988281 164.476562 56.195312 163.609375 C 54.75 162.914062 53.21875 163.15625 51.8125 163.777344 C 55.132812 159.875 62.011719 162.667969 66.667969 163.335938 C 69.53125 163.746094 72.550781 163.65625 75.054688 162.054688 C 77.371094 160.574219 79.796875 157.652344 80.1875 154.847656 C 80.964844 149.257812 73.96875 146.921875 69.730469 146.027344 C 61.925781 144.382812 54.582031 146.667969 46.839844 147.710938 C 41.25 148.464844 35.660156 148.402344 30.210938 146.851562 C 25.046875 145.386719 20.355469 142.5 15.4375 140.386719 C 11.90625 138.867188 8.175781 137.785156 4.300781 138.042969 C 0.722656 138.28125 -2.5625 139.738281 -5.570312 141.617188 C -2.035156 135.390625 5.695312 133.46875 12.644531 133.234375 Z M -6.957031 144.613281 C -3.109375 141.832031 1.175781 139.652344 6.007812 139.722656 C 10.039062 139.78125 13.914062 141.515625 17.5 143.179688 C 22.125 145.328125 26.589844 147.773438 31.582031 148.988281 C 36.3125 150.140625 41.1875 150.058594 46 149.527344 C 51.015625 148.972656 55.949219 147.566406 60.96875 147.109375 C 63.960938 146.832031 67.046875 147.160156 69.96875 147.8125 C 72.660156 148.414062 75.625 149.390625 77.535156 151.480469 C 79.785156 153.949219 77.800781 157.027344 75.949219 159.019531 C 71.660156 163.644531 65.480469 161.371094 60.113281 160.457031 C 55.164062 159.617188 50.734375 160.398438 49.027344 165.703125 C 48.769531 166.496094 49.726562 166.964844 50.308594 166.507812 C 52.242188 164.996094 56.03125 163.441406 57.027344 166.8125 C 57.910156 169.789062 54.421875 172.316406 52.058594 173.117188 C 49.453125 174.003906 46.601562 173.171875 44.125 172.28125 C 41.53125 171.351562 39.011719 170.253906 36.398438 169.359375 C 24.484375 165.296875 11.960938 164.527344 -0.160156 168.015625 C -0.527344 168.117188 -0.898438 168.226562 -1.269531 168.34375 C -2.152344 168.628906 -1.835938 170.042969 -0.929688 169.765625 C -0.550781 169.644531 -0.164062 169.535156 0.21875 169.425781 C 19.203125 164.261719 32.519531 184.480469 50.699219 186.035156 C 58.394531 186.691406 65.238281 182.960938 72.3125 180.511719 C 76.007812 179.238281 79.902344 178.078125 83.84375 178.117188 C 87.070312 178.152344 91.34375 179.910156 91.40625 183.714844 C 91.460938 187.210938 86.71875 190.332031 84.5 192.464844 C 81.789062 195.070312 79.273438 198.105469 79.027344 202.011719 C 78.984375 202.699219 80.015625 203.050781 80.351562 202.414062 C 83.328125 196.78125 89.6875 193.261719 95.375 190.980469 C 101.109375 188.6875 108.871094 186.96875 114.617188 190.09375 C 113.378906 192.757812 110.113281 193.988281 107.480469 194.757812 C 104.722656 195.558594 101.660156 195.988281 98.800781 195.605469 C 98.019531 195.5 97.921875 196.664062 98.585938 196.910156 C 103.570312 198.734375 109.71875 197.460938 114.878906 197.25 C 119.445312 197.0625 127.945312 196.582031 127.765625 203.15625 C 127.605469 209.113281 119.558594 211.832031 114.953125 213.160156 C 109.699219 214.675781 103.996094 215.582031 98.523438 215.457031 C 97.808594 215.441406 97.632812 216.492188 98.316406 216.695312 C 102.738281 218.015625 107.332031 218.746094 111.917969 219.171875 C 116.515625 219.597656 121.605469 219.851562 126.105469 218.601562 C 134.332031 216.316406 140.960938 209.234375 149.691406 208.550781 C 151.949219 208.375 153.886719 209.058594 155.847656 210.117188 C 156.867188 210.671875 159.542969 212.019531 159.207031 213.542969 C 158.71875 215.777344 153.246094 216.4375 151.519531 216.785156 C 144.015625 218.300781 136.222656 218.722656 129.851562 223.511719 C 126.179688 226.273438 124.316406 230.453125 124.183594 234.988281 C 124.167969 235.554688 124.914062 235.761719 125.222656 235.304688 C 131.929688 225.207031 145.800781 223.605469 156.804688 222.273438 C 162.574219 221.574219 168.5 221.703125 174.0625 219.824219 C 176.664062 218.949219 179.351562 217.628906 181.53125 215.941406 C 183.609375 214.335938 188.335938 209.773438 188.234375 209.796875 C 190.15625 207.316406 190.410156 203.601562 190.726562 200.636719 C 191.222656 196.007812 191.359375 191.28125 193.835938 187.199219 C 198.054688 180.257812 207.40625 173.996094 205.839844 164.824219 C 205.035156 160.097656 199.386719 156.8125 195.597656 154.816406 C 189.382812 151.546875 182.507812 149.496094 175.65625 148.082031 C 169.984375 146.914062 164.125 146.195312 158.324219 146.484375 C 154.609375 146.667969 149.851562 147.210938 147.195312 150.164062 C 146.585938 150.84375 147.082031 151.941406 148.035156 151.746094 C 150.339844 151.28125 152.214844 152.148438 154.207031 152.980469 C 148.210938 156.410156 141.636719 153.3125 136.511719 149.234375 C 130.96875 144.828125 127.074219 139.160156 123.011719 133.472656 C 121.078125 130.769531 118.605469 128.636719 115.441406 127.566406 C 112.078125 126.429688 108.117188 126.695312 104.671875 127.332031 C 99.167969 128.351562 91.097656 132.296875 94.40625 139.097656 C 94.714844 139.738281 95.59375 139.695312 95.964844 139.15625 C 97.375 137.128906 99.746094 134.199219 102.585938 134.714844 C 104.492188 135.058594 105.570312 136.921875 105.898438 138.683594 C 107.335938 146.421875 96.335938 146.441406 91.679688 145.292969 C 81.222656 142.714844 73.464844 132.867188 62.132812 133.054688 C 56.984375 133.136719 52.140625 135.53125 47.148438 136.523438 C 40.90625 137.765625 35.242188 135.207031 29.351562 133.613281 C 17.355469 130.363281 -3.539062 128.695312 -8.371094 143.722656 C -8.65625 144.621094 -7.601562 145.078125 -6.957031 144.613281"/></g></g></g></g><g clip-path="url(#j)"><g clip-path="url(#k)"><g clip-path="url(#l)"><g clip-path="url(#m)"><path fill="#EC9014" d="M 145.980469 137.515625 C 151.503906 136.347656 156.886719 135.683594 162.460938 135.882812 C 161.5 135.3125 160.597656 134.582031 159.863281 134.09375 C 157.417969 132.464844 155.085938 130.957031 152.1875 130.3125 C 146.929688 129.144531 138.332031 128.140625 136.410156 134.828125 C 134.992188 139.75 143.511719 138.035156 145.980469 137.515625"/></g></g></g></g><g clip-path="url(#n)"><g clip-path="url(#o)"><g clip-path="url(#p)"><g clip-path="url(#q)"><path fill="#D8571E" d="M 152.1875 130.3125 C 155.085938 130.957031 157.417969 132.464844 159.863281 134.09375 C 160.597656 134.582031 161.5 135.3125 162.460938 135.882812 C 156.886719 135.683594 151.503906 136.347656 145.980469 137.515625 C 143.511719 138.035156 134.992188 139.75 136.410156 134.828125 C 138.332031 128.140625 146.929688 129.144531 152.1875 130.3125 Z M 143.191406 139.152344 C 145.59375 138.871094 147.898438 138.183594 150.265625 137.75 C 155.332031 136.816406 160.4375 136.824219 165.554688 137.15625 C 166.117188 137.195312 166.238281 136.503906 165.894531 136.210938 C 165.925781 135.882812 165.710938 135.511719 165.316406 135.496094 C 164.113281 135.441406 162.832031 134.410156 161.859375 133.789062 C 160.402344 132.855469 158.980469 131.871094 157.496094 130.984375 C 154.9375 129.449219 152.109375 128.859375 149.183594 128.472656 C 143.492188 127.722656 136.566406 128.492188 135.125 135.15625 C 134.128906 139.75 140.386719 139.480469 143.191406 139.152344"/></g></g></g></g><g clip-path="url(#r)"><g clip-path="url(#s)"><g clip-path="url(#t)"><g clip-path="url(#u)"><path fill="#EBB92C" d="M 16.824219 156.886719 C 22.441406 159.117188 29.65625 162.640625 35.59375 159.890625 C 32.863281 159.660156 30.257812 158.308594 27.90625 157.015625 C 24.679688 155.234375 21.578125 153.21875 18.265625 151.585938 C 15.289062 150.125 11.578125 148.5 8.191406 149.398438 C 4.375 150.40625 2.410156 154.066406 1.164062 157.578125 C 3.523438 156.476562 6.023438 155.472656 8.628906 155.304688 C 11.472656 155.121094 14.199219 155.839844 16.824219 156.886719"/></g></g></g></g><g clip-path="url(#v)"><g clip-path="url(#w)"><g clip-path="url(#x)"><g clip-path="url(#y)"><path fill="#D8571E" d="M 8.191406 149.398438 C 11.578125 148.5 15.289062 150.125 18.265625 151.585938 C 21.578125 153.21875 24.679688 155.234375 27.90625 157.015625 C 30.257812 158.308594 32.863281 159.660156 35.59375 159.890625 C 29.65625 162.640625 22.441406 159.117188 16.824219 156.886719 C 14.199219 155.839844 11.472656 155.121094 8.628906 155.304688 C 6.023438 155.472656 3.523438 156.476562 1.164062 157.578125 C 2.410156 154.066406 4.375 150.40625 8.191406 149.398438 Z M 0.570312 158.921875 C 3.675781 157.40625 6.878906 156.078125 10.390625 156.203125 C 13.675781 156.316406 16.746094 157.84375 19.761719 158.984375 C 25.261719 161.066406 31.976562 163.433594 37.363281 159.78125 C 37.734375 159.53125 37.464844 158.9375 37.09375 159.070312 C 37.050781 158.753906 36.832031 158.476562 36.421875 158.480469 C 32.964844 158.550781 29.613281 156.542969 26.679688 154.933594 C 23.199219 153.03125 19.8125 150.925781 16.125 149.441406 C 13.136719 148.234375 9.820312 147.5625 6.726562 148.773438 C 2.867188 150.289062 1.003906 154.691406 -0.113281 158.355469 C -0.238281 158.769531 0.199219 159.101562 0.570312 158.921875"/></g></g></g></g><g clip-path="url(#z)"><g clip-path="url(#A)"><g clip-path="url(#B)"><g clip-path="url(#C)"><path fill="#EC9014" d="M 99.292969 212.1875 C 97.941406 212.136719 96.550781 212.277344 95.195312 212.1875 C 92.980469 212.046875 90.851562 211.332031 88.839844 210.417969 C 86.019531 209.140625 83.273438 207.667969 80.367188 206.585938 C 76.027344 204.976562 68.558594 202.988281 67.5 209.058594 C 69.460938 208.613281 71.265625 208.949219 73.261719 209.554688 C 73.652344 209.671875 73.839844 210.15625 73.613281 210.507812 C 70.011719 216.058594 60.972656 216.769531 55.078125 217.179688 C 50.457031 217.507812 45.695312 217.585938 41 217.234375 C 50.558594 219.894531 60.339844 221.746094 70.28125 219.789062 C 80.058594 217.863281 89.402344 213.503906 99.292969 212.1875"/></g></g></g></g><g clip-path="url(#D)"><g clip-path="url(#E)"><g clip-path="url(#F)"><g clip-path="url(#G)"><path fill="#D8571E" d="M 55.078125 217.179688 C 60.972656 216.769531 70.011719 216.058594 73.613281 210.507812 C 73.839844 210.15625 73.652344 209.671875 73.261719 209.554688 C 71.265625 208.949219 69.460938 208.613281 67.5 209.058594 C 68.558594 202.988281 76.027344 204.976562 80.367188 206.585938 C 83.273438 207.667969 86.019531 209.140625 88.839844 210.417969 C 90.851562 211.332031 92.980469 212.046875 95.195312 212.1875 C 96.550781 212.277344 97.941406 212.136719 99.292969 212.1875 C 89.402344 213.503906 80.058594 217.863281 70.28125 219.789062 C 60.339844 221.746094 50.558594 219.894531 41 217.234375 C 45.695312 217.585938 50.457031 217.507812 55.078125 217.179688 Z M 33.25 216.226562 C 44.800781 219.738281 56.265625 222.789062 68.4375 221.101562 C 74.203125 220.300781 79.792969 218.296875 85.320312 216.539062 C 90.828125 214.789062 96.339844 213.332031 102.074219 212.714844 C 102.296875 212.804688 102.519531 212.90625 102.738281 213.03125 C 103.226562 213.304688 103.699219 212.921875 103.765625 212.503906 C 104.0625 212.335938 104.035156 211.804688 103.621094 211.820312 C 103.527344 211.824219 103.433594 211.828125 103.339844 211.835938 C 101.390625 210.785156 99.289062 210.804688 97.113281 210.851562 C 93.832031 210.929688 91.019531 209.996094 88.074219 208.617188 C 84.9375 207.148438 81.859375 205.605469 78.539062 204.574219 C 73.230469 202.925781 66.53125 202.917969 66.09375 209.929688 C 66.066406 210.324219 66.496094 210.714844 66.886719 210.578125 C 68.6875 209.957031 70.285156 210.09375 72.007812 210.53125 C 70.285156 212.59375 67.523438 213.621094 65.019531 214.34375 C 61.335938 215.414062 57.453125 215.816406 53.640625 216.039062 C 47.039062 216.425781 40.117188 216.3125 33.605469 215.054688 C 32.847656 214.910156 32.480469 215.992188 33.25 216.226562"/></g></g></g></g><g clip-path="url(#H)"><g clip-path="url(#I)"><g clip-path="url(#J)"><g clip-path="url(#K)"><path fill="#EBB92C" d="M 65 189.71875 C 60.578125 193.300781 54.074219 192.292969 48.65625 191.589844 C 41.519531 190.65625 33.695312 189.859375 28.570312 195.363281 C 34.179688 193.089844 41.191406 194.460938 46.921875 194.898438 C 53.222656 195.378906 61.449219 195.675781 65 189.71875"/></g></g></g></g><g clip-path="url(#L)"><g clip-path="url(#M)"><g clip-path="url(#N)"><g clip-path="url(#O)"><path fill="#D8571E" d="M 48.65625 191.589844 C 54.074219 192.292969 60.578125 193.300781 65 189.71875 C 61.449219 195.675781 53.222656 195.378906 46.921875 194.898438 C 41.191406 194.460938 34.179688 193.089844 28.570312 195.363281 C 33.695312 189.859375 41.519531 190.65625 48.65625 191.589844 Z M 26.9375 197.367188 C 30.003906 195.390625 33.796875 195.21875 37.332031 195.269531 C 41.5 195.328125 45.648438 195.765625 49.808594 195.925781 C 56.371094 196.179688 63.492188 195.335938 66.148438 188.621094 C 66.359375 188.386719 66.566406 188.140625 66.765625 187.878906 C 67.246094 187.238281 66.195312 186.582031 65.722656 187.214844 C 61.15625 193.328125 51.820312 190.730469 45.464844 190.039062 C 38.09375 189.238281 30.691406 189.90625 26.253906 196.628906 C 25.980469 197.046875 26.492188 197.652344 26.9375 197.367188"/></g></g></g></g><g clip-path="url(#P)"><g clip-path="url(#Q)"><g clip-path="url(#R)"><g clip-path="url(#S)"><path fill="#EBB92C" d="M 74.292969 124.398438 C 76.484375 125.238281 78.804688 126.089844 81.175781 126.152344 C 83.578125 126.214844 85.703125 125.582031 87.828125 124.585938 C 86.023438 124.65625 84.34375 124.289062 82.632812 123.378906 C 80.164062 122.058594 77.863281 120.605469 75.070312 120.070312 C 71.253906 119.335938 67.667969 120.167969 64.0625 121.1875 C 67.605469 121.671875 70.902344 123.09375 74.292969 124.398438"/></g></g></g></g><g clip-path="url(#T)"><g clip-path="url(#U)"><g clip-path="url(#V)"><g clip-path="url(#W)"><path fill="#D8571E" d="M 75.070312 120.070312 C 77.863281 120.605469 80.164062 122.058594 82.632812 123.378906 C 84.34375 124.289062 86.023438 124.65625 87.828125 124.585938 C 85.703125 125.582031 83.578125 126.214844 81.175781 126.152344 C 78.804688 126.089844 76.484375 125.238281 74.292969 124.398438 C 70.902344 123.09375 67.605469 121.671875 64.0625 121.1875 C 67.667969 120.167969 71.253906 119.335938 75.070312 120.070312 Z M 60.949219 122.058594 C 70.441406 121.574219 79.734375 131.039062 88.78125 124.613281 C 88.828125 124.582031 88.851562 124.539062 88.867188 124.496094 C 89.066406 124.472656 89.261719 124.449219 89.464844 124.417969 C 90.324219 124.273438 90.007812 122.878906 89.152344 123.09375 C 85.839844 123.914062 83.296875 122.304688 80.507812 120.78125 C 78.507812 119.6875 76.339844 119.085938 74.097656 118.746094 C 69.566406 118.074219 65.117188 119.789062 60.84375 121.039062 C 60.3125 121.199219 60.339844 122.089844 60.949219 122.058594"/></g></g></g></g><g clip-path="url(#X)"><g clip-path="url(#Y)"><g clip-path="url(#Z)"><g clip-path="url(#aa)"><path fill="#EBB92C" d="M 173.054688 204.285156 C 173.152344 204.226562 173.246094 204.160156 173.324219 204.089844 L 173.054688 204.285156"/></g></g></g></g><g clip-path="url(#ab)"><g clip-path="url(#ac)"><g clip-path="url(#ad)"><g clip-path="url(#ae)"><path fill="#EBB92C" d="M 122.117188 173.433594 C 127.539062 174.359375 132.394531 177.425781 136.710938 180.699219 C 141.570312 184.386719 146.003906 188.585938 150.65625 192.523438 C 154.601562 195.863281 159.035156 199.714844 164.125 201.105469 C 169.28125 202.515625 173.550781 200.242188 176.726562 196.15625 C 176.765625 196.105469 176.8125 196.070312 176.859375 196.042969 C 176.523438 196.191406 176.097656 196.140625 175.867188 195.730469 C 173 190.636719 166.953125 188.835938 161.976562 186.519531 C 161.324219 186.214844 161.703125 185.125 162.378906 185.1875 C 166.4375 185.5625 170.527344 185.472656 174.59375 185.179688 C 165.507812 174.265625 151.683594 159.9375 136.4375 164.242188 C 141.0625 165.414062 145.390625 167.902344 146.410156 172.992188 C 146.527344 173.570312 145.917969 174.011719 145.410156 173.710938 C 136.148438 168.199219 111.441406 160.308594 109.21875 176.632812 C 113.007812 173.964844 117.429688 172.632812 122.117188 173.433594"/></g></g></g></g><g clip-path="url(#af)"><g clip-path="url(#ag)"><g clip-path="url(#ah)"><g clip-path="url(#ai)"><path fill="#EC9014" d="M 145.410156 173.710938 C 145.917969 174.011719 146.527344 173.570312 146.410156 172.992188 C 145.390625 167.902344 141.0625 165.414062 136.4375 164.242188 C 151.683594 159.9375 165.507812 174.265625 174.59375 185.179688 C 170.527344 185.472656 166.4375 185.5625 162.378906 185.1875 C 161.703125 185.125 161.324219 186.214844 161.976562 186.519531 C 166.953125 188.835938 173 190.636719 175.867188 195.730469 C 176.097656 196.140625 176.523438 196.191406 176.859375 196.042969 C 176.8125 196.070312 176.765625 196.105469 176.726562 196.15625 C 173.550781 200.242188 169.28125 202.515625 164.125 201.105469 C 159.035156 199.714844 154.601562 195.863281 150.65625 192.523438 C 146.003906 188.585938 141.570312 184.386719 136.710938 180.699219 C 132.394531 177.425781 127.539062 174.359375 122.117188 173.433594 C 117.429688 172.632812 113.007812 173.964844 109.21875 176.632812 C 111.441406 160.308594 136.148438 168.199219 145.410156 173.710938 Z M 108.875 178.523438 C 113.425781 174.835938 118.796875 173.636719 124.414062 175.324219 C 129.953125 176.988281 134.753906 180.71875 139.183594 184.3125 C 143.917969 188.152344 148.367188 192.335938 153.199219 196.054688 C 156.933594 198.933594 161.207031 201.792969 165.988281 202.421875 C 170.757812 203.050781 174.667969 200.25 177.453125 196.621094 C 177.738281 196.25 177.28125 195.878906 176.925781 196.011719 C 177.261719 195.828125 177.472656 195.433594 177.230469 195.003906 C 174.824219 190.785156 170.558594 188.714844 166.273438 186.847656 C 169.523438 186.933594 172.785156 186.792969 176.03125 186.527344 C 176.660156 186.476562 177.011719 185.820312 176.585938 185.300781 C 166.644531 173.160156 150.914062 156.875 133.605469 163.8125 C 133.089844 164.019531 133.164062 164.953125 133.726562 165.042969 C 138.15625 165.773438 142.949219 167.445312 144.664062 171.765625 C 133.378906 165.738281 108.757812 159.328125 107.773438 178.023438 C 107.742188 178.628906 108.449219 178.863281 108.875 178.523438"/></g></g></g></g><g clip-path="url(#aj)"><g clip-path="url(#ak)"><g clip-path="url(#al)"><g clip-path="url(#am)"><path fill="#EBB92C" d="M 92.542969 170.300781 C 96.660156 170.035156 100.980469 169.792969 104.925781 168.460938 C 107.925781 167.445312 109.929688 165.871094 110.191406 162.761719 C 106.625 163.210938 103.203125 164.636719 99.628906 165.121094 C 96.175781 165.589844 92.761719 164.804688 89.316406 164.980469 C 83.304688 165.289062 76.910156 167.304688 73.503906 172.417969 C 75.46875 171.59375 77.796875 171.355469 79.761719 171.140625 C 84.007812 170.675781 88.28125 170.570312 92.542969 170.300781"/></g></g></g></g><g clip-path="url(#an)"><g clip-path="url(#ao)"><g clip-path="url(#ap)"><g clip-path="url(#aq)"><path fill="#EC9014" d="M 89.316406 164.980469 C 92.761719 164.804688 96.175781 165.589844 99.628906 165.121094 C 103.203125 164.636719 106.625 163.210938 110.191406 162.761719 C 109.929688 165.871094 107.925781 167.445312 104.925781 168.460938 C 100.980469 169.792969 96.660156 170.035156 92.542969 170.300781 C 88.28125 170.570312 84.007812 170.675781 79.761719 171.140625 C 77.796875 171.355469 75.46875 171.59375 73.503906 172.417969 C 76.910156 167.304688 83.304688 165.289062 89.316406 164.980469 Z M 72.1875 174.777344 C 74.589844 172.566406 79.042969 172.527344 82.078125 172.265625 C 86.761719 171.863281 91.46875 171.757812 96.152344 171.320312 C 100.773438 170.890625 112.667969 169.71875 111.246094 162.472656 C 111.714844 162.023438 111.589844 161.066406 110.800781 161.144531 C 106.710938 161.527344 102.867188 163.246094 98.761719 163.648438 C 94.800781 164.039062 90.867188 163.210938 86.886719 163.648438 C 80.152344 164.386719 73.917969 167.695312 71.097656 174.09375 C 70.820312 174.726562 71.730469 175.191406 72.1875 174.777344"/></g></g></g></g><g clip-path="url(#ar)"><g clip-path="url(#as)"><g clip-path="url(#at)"><g clip-path="url(#au)"><path fill="#D8571E" d="M -1.277344 200.96875 C 2.582031 200.527344 6.363281 201.429688 9.957031 202.777344 C 14.972656 204.65625 19.796875 207.316406 25.027344 208.535156 C 30.542969 209.824219 36.128906 209.625 41.675781 208.605469 C 49.359375 207.191406 56.582031 204.5625 64.457031 205.832031 C 68.734375 206.523438 75.832031 208.523438 75.324219 214.148438 C 75.070312 216.964844 72.78125 220 70.539062 221.589844 C 68.117188 223.308594 65.105469 223.542969 62.226562 223.269531 C 57.539062 222.820312 50.535156 220.359375 47.40625 224.417969 C 48.78125 223.726562 50.296875 223.410156 51.773438 224.039062 C 53.605469 224.816406 54.632812 226.726562 54.382812 228.703125 C 53.5625 235.140625 45.925781 236.53125 40.808594 235.054688 C 37.585938 234.128906 34.476562 232.878906 31.238281 231.996094 C 27.191406 230.894531 23.058594 230.023438 18.871094 229.6875 C 14.816406 229.359375 10.800781 229.464844 6.835938 229.996094 C 8.675781 230.210938 10.507812 230.621094 12.316406 231.222656 C 18.121094 233.160156 23.351562 236.351562 28.726562 239.210938 C 36.589844 243.386719 45.945312 247.253906 54.921875 244.292969 C 62.199219 241.890625 68.882812 237.621094 76.488281 236.203125 C 79.421875 235.652344 82.8125 235.378906 85.515625 236.921875 C 87.792969 238.222656 89.867188 240.769531 89.234375 243.566406 C 88.527344 246.667969 85.855469 249.003906 83.726562 251.1875 C 82 252.957031 80.125 254.871094 78.964844 257.09375 C 82.472656 252.84375 87.800781 249.769531 92.632812 247.785156 C 98.699219 245.292969 106.46875 243.417969 112.570312 246.785156 C 112.824219 246.925781 112.976562 247.257812 112.894531 247.546875 C 111.929688 250.730469 108.765625 252.574219 105.820312 253.65625 C 105.140625 253.90625 104.4375 254.136719 103.726562 254.347656 C 104.148438 254.308594 104.566406 254.265625 104.976562 254.230469 C 108.507812 253.894531 112.042969 253.386719 115.59375 253.328125 C 120.320312 253.246094 126.902344 254.230469 126.398438 260.464844 C 125.917969 266.476562 119.496094 269.675781 114.503906 271.488281 C 110.238281 273.039062 105.648438 274.207031 101.058594 274.753906 C 106.707031 275.742188 112.589844 276.015625 118.222656 275.464844 C 122.945312 275 126.683594 273.410156 130.726562 270.980469 C 134.421875 268.761719 138.050781 266.289062 142.058594 264.671875 C 145.273438 263.371094 149.089844 262.472656 152.421875 263.925781 C 154.1875 264.699219 158.699219 266.410156 158.234375 269.125 C 157.871094 271.242188 154.992188 272.207031 153.261719 272.785156 C 150.257812 273.785156 147.148438 274.378906 144.054688 275 C 135.472656 276.722656 125.34375 280.511719 124.292969 290.109375 C 130.800781 281.273438 143.011719 278.824219 153.226562 277.109375 C 156.035156 276.636719 158.835938 276.148438 161.671875 275.875 C 164.96875 275.558594 168.300781 275.0625 171.410156 273.863281 C 174.726562 272.582031 177.902344 270.71875 180.453125 268.222656 C 181.433594 267.261719 182.542969 265.914062 183.800781 264.953125 C 183.484375 264.667969 183.359375 264.179688 183.765625 263.804688 C 185.714844 262 185.953125 258.839844 186.132812 256.347656 C 186.351562 253.316406 186.382812 250.28125 186.730469 247.261719 C 187.363281 241.757812 190.332031 237.726562 193.546875 233.398438 C 196.164062 229.878906 199.785156 225.53125 199.777344 220.894531 C 199.773438 218.097656 198.492188 216.089844 196.414062 214.328125 C 191.582031 210.234375 185.042969 208.089844 179.015625 206.527344 C 172.023438 204.71875 164.738281 203.59375 157.503906 203.691406 C 153.929688 203.738281 148.824219 203.789062 145.390625 205.847656 C 147.402344 206.074219 149.238281 206.945312 151.378906 207.546875 C 151.996094 207.722656 152.375 208.621094 151.808594 209.09375 C 140.949219 218.160156 127.851562 206.648438 120.664062 198.367188 C 118.441406 195.800781 116.695312 192.769531 114.300781 190.378906 C 111.621094 187.710938 108.398438 186.417969 104.601562 186.546875 C 100.226562 186.699219 88.0625 189.035156 89.746094 195.375 C 91.289062 193.257812 93.390625 191.210938 96.058594 191.152344 C 98.242188 191.101562 100.226562 192.394531 101.21875 194.332031 C 104.140625 200.050781 99.636719 205.039062 94.03125 206.023438 C 83.308594 207.910156 75.054688 200.242188 65.691406 196.707031 C 62.945312 195.667969 59.875 194.753906 56.90625 194.941406 C 54.246094 195.109375 51.707031 195.859375 49.203125 196.734375 C 44.320312 198.441406 39.515625 200.207031 34.257812 199.550781 C 28.929688 198.886719 23.847656 196.957031 18.519531 196.199219 C 14.660156 195.652344 10.714844 195.449219 6.828125 195.765625 C -0.0976562 196.332031 -7.730469 198.621094 -10.964844 205.003906 C -8.050781 202.988281 -4.835938 201.375 -1.277344 200.96875"/></g></g></g></g><g clip-path="url(#av)"><g clip-path="url(#aw)"><g clip-path="url(#ax)"><g clip-path="url(#ay)"><path fill="#D8571E" d="M 6.828125 195.765625 C 10.714844 195.449219 14.660156 195.652344 18.519531 196.199219 C 23.847656 196.957031 28.929688 198.886719 34.257812 199.550781 C 39.515625 200.207031 44.320312 198.441406 49.203125 196.734375 C 51.707031 195.859375 54.246094 195.109375 56.90625 194.941406 C 59.875 194.753906 62.945312 195.667969 65.691406 196.707031 C 75.054688 200.242188 83.308594 207.910156 94.03125 206.023438 C 99.636719 205.039062 104.140625 200.050781 101.21875 194.332031 C 100.226562 192.394531 98.242188 191.101562 96.058594 191.152344 C 93.390625 191.210938 91.289062 193.257812 89.746094 195.375 C 88.0625 189.035156 100.226562 186.699219 104.601562 186.546875 C 108.398438 186.417969 111.621094 187.710938 114.300781 190.378906 C 116.695312 192.769531 118.441406 195.800781 120.664062 198.367188 C 127.851562 206.648438 140.949219 218.160156 151.808594 209.09375 C 152.375 208.621094 151.996094 207.722656 151.378906 207.546875 C 149.238281 206.945312 147.402344 206.074219 145.390625 205.847656 C 148.824219 203.789062 153.929688 203.738281 157.503906 203.691406 C 164.738281 203.59375 172.023438 204.71875 179.015625 206.527344 C 185.042969 208.089844 191.582031 210.234375 196.414062 214.328125 C 198.492188 216.089844 199.773438 218.097656 199.777344 220.894531 C 199.785156 225.53125 196.164062 229.878906 193.546875 233.398438 C 190.332031 237.726562 187.363281 241.757812 186.730469 247.261719 C 186.382812 250.28125 186.351562 253.316406 186.132812 256.347656 C 185.953125 258.839844 185.714844 262 183.765625 263.804688 C 183.359375 264.179688 183.484375 264.667969 183.800781 264.953125 C 182.542969 265.914062 181.433594 267.261719 180.453125 268.222656 C 177.902344 270.71875 174.726562 272.582031 171.410156 273.863281 C 168.300781 275.0625 164.96875 275.558594 161.671875 275.875 C 158.835938 276.148438 156.035156 276.636719 153.226562 277.109375 C 143.011719 278.824219 130.800781 281.273438 124.292969 290.109375 C 125.34375 280.511719 135.472656 276.722656 144.054688 275 C 147.148438 274.378906 150.257812 273.785156 153.261719 272.785156 C 154.992188 272.207031 157.871094 271.242188 158.234375 269.125 C 158.699219 266.410156 154.1875 264.699219 152.421875 263.925781 C 149.089844 262.472656 145.273438 263.371094 142.058594 264.671875 C 138.050781 266.289062 134.421875 268.761719 130.726562 270.980469 C 126.683594 273.410156 122.945312 275 118.222656 275.464844 C 112.589844 276.015625 106.707031 275.742188 101.058594 274.753906 C 105.648438 274.207031 110.238281 273.039062 114.503906 271.488281 C 119.496094 269.675781 125.917969 266.476562 126.398438 260.464844 C 126.902344 254.230469 120.320312 253.246094 115.59375 253.328125 C 112.042969 253.386719 108.507812 253.894531 104.976562 254.230469 C 104.566406 254.265625 104.148438 254.308594 103.726562 254.347656 C 104.4375 254.136719 105.140625 253.90625 105.820312 253.65625 C 108.765625 252.574219 111.929688 250.730469 112.894531 247.546875 C 112.976562 247.257812 112.824219 246.925781 112.570312 246.785156 C 106.46875 243.417969 98.699219 245.292969 92.632812 247.785156 C 87.800781 249.769531 82.472656 252.84375 78.964844 257.09375 C 80.125 254.871094 82 252.957031 83.726562 251.1875 C 85.855469 249.003906 88.527344 246.667969 89.234375 243.566406 C 89.867188 240.769531 87.792969 238.222656 85.515625 236.921875 C 82.8125 235.378906 79.421875 235.652344 76.488281 236.203125 C 68.882812 237.621094 62.199219 241.890625 54.921875 244.292969 C 45.945312 247.253906 36.589844 243.386719 28.726562 239.210938 C 23.351562 236.351562 18.121094 233.160156 12.316406 231.222656 C 10.507812 230.621094 8.675781 230.210938 6.835938 229.996094 C 10.800781 229.464844 14.816406 229.359375 18.871094 229.6875 C 23.058594 230.023438 27.191406 230.894531 31.238281 231.996094 C 34.476562 232.878906 37.585938 234.128906 40.808594 235.054688 C 45.925781 236.53125 53.5625 235.140625 54.382812 228.703125 C 54.632812 226.726562 53.605469 224.816406 51.773438 224.039062 C 50.296875 223.410156 48.78125 223.726562 47.40625 224.417969 C 50.535156 220.359375 57.539062 222.820312 62.226562 223.269531 C 65.105469 223.542969 68.117188 223.308594 70.539062 221.589844 C 72.78125 220 75.070312 216.964844 75.324219 214.148438 C 75.832031 208.523438 68.734375 206.523438 64.457031 205.832031 C 56.582031 204.5625 49.359375 207.191406 41.675781 208.605469 C 36.128906 209.625 30.542969 209.824219 25.027344 208.535156 C 19.796875 207.316406 14.972656 204.65625 9.957031 202.777344 C 6.363281 201.429688 2.582031 200.527344 -1.277344 200.96875 C -4.835938 201.375 -8.050781 202.988281 -10.964844 205.003906 C -7.730469 198.621094 -0.0976562 196.332031 6.828125 195.765625 Z M -12.207031 208.066406 C -8.496094 205.105469 -4.324219 202.726562 0.511719 202.566406 C 4.535156 202.429688 8.488281 203.976562 12.152344 205.472656 C 16.875 207.398438 21.453125 209.628906 26.492188 210.605469 C 31.273438 211.527344 36.140625 211.214844 40.921875 210.457031 C 45.90625 209.664062 50.765625 208.023438 55.757812 207.328125 C 58.734375 206.914062 61.832031 207.09375 64.785156 207.605469 C 67.496094 208.078125 70.507812 208.910156 72.515625 210.910156 C 74.878906 213.265625 73.042969 216.4375 71.289062 218.515625 C 67.226562 223.339844 60.945312 221.359375 55.539062 220.703125 C 50.554688 220.101562 46.167969 221.089844 44.714844 226.472656 C 44.496094 227.273438 45.472656 227.695312 46.03125 227.214844 C 47.890625 225.609375 51.605469 223.878906 52.761719 227.199219 C 53.78125 230.128906 50.417969 232.820312 48.097656 233.734375 C 45.535156 234.742188 42.648438 234.046875 40.128906 233.273438 C 37.496094 232.46875 34.925781 231.492188 32.273438 230.722656 C 20.179688 227.230469 7.632812 227.058594 -4.304688 231.117188 C -4.671875 231.238281 -5.035156 231.363281 -5.398438 231.5 C -6.269531 231.828125 -5.882812 233.222656 -4.996094 232.902344 C -4.617188 232.765625 -4.238281 232.636719 -3.859375 232.507812 C 14.855469 226.449219 29.121094 246.011719 47.351562 246.703125 C 55.070312 246.992188 61.726562 242.9375 68.679688 240.15625 C 72.308594 238.707031 76.144531 237.367188 80.082031 237.214844 C 83.304688 237.097656 87.65625 238.648438 87.902344 242.449219 C 88.125 245.933594 83.53125 249.277344 81.417969 251.515625 C 78.832031 254.25 76.464844 257.398438 76.40625 261.3125 C 76.394531 262.003906 77.441406 262.300781 77.75 261.652344 C 80.453125 255.882812 86.636719 252.0625 92.210938 249.519531 C 97.828125 246.953125 105.503906 244.871094 111.390625 247.714844 C 110.28125 250.4375 107.078125 251.820312 104.484375 252.710938 C 101.769531 253.644531 98.726562 254.222656 95.851562 253.972656 C 95.066406 253.902344 95.023438 255.070312 95.703125 255.285156 C 100.765625 256.871094 106.847656 255.308594 111.992188 254.851562 C 116.542969 254.445312 125.011719 253.5625 125.144531 260.136719 C 125.269531 266.097656 117.359375 269.195312 112.820312 270.742188 C 107.644531 272.503906 101.992188 273.683594 96.519531 273.816406 C 95.804688 273.835938 95.679688 274.894531 96.375 275.0625 C 100.851562 276.167969 105.472656 276.683594 110.074219 276.890625 C 114.6875 277.097656 119.785156 277.105469 124.222656 275.644531 C 132.328125 272.972656 138.613281 265.585938 147.304688 264.484375 C 149.550781 264.203125 151.515625 264.792969 153.523438 265.757812 C 154.570312 266.261719 157.304688 267.484375 157.042969 269.019531 C 156.660156 271.277344 151.226562 272.195312 149.519531 272.621094 C 142.09375 274.492188 134.332031 275.289062 128.199219 280.371094 C 124.65625 283.304688 122.996094 287.570312 123.082031 292.105469 C 123.09375 292.671875 123.847656 292.84375 124.132812 292.371094 C 130.351562 281.96875 144.132812 279.710938 155.058594 277.855469 C 160.789062 276.882812 166.714844 276.730469 172.183594 274.589844 C 174.738281 273.589844 177.359375 272.144531 179.457031 270.355469 C 181.457031 268.652344 185.960938 263.871094 185.863281 263.898438 C 187.664062 261.328125 187.738281 257.605469 187.917969 254.628906 C 188.191406 249.984375 188.101562 245.253906 190.382812 241.0625 C 194.265625 233.921875 203.308594 227.226562 201.308594 218.140625 C 200.277344 213.457031 194.480469 210.441406 190.601562 208.628906 C 184.238281 205.660156 177.273438 203.9375 170.363281 202.851562 C 164.640625 201.953125 158.757812 201.515625 152.976562 202.078125 C 149.273438 202.441406 144.546875 203.207031 142.03125 206.285156 C 141.457031 206.992188 142.003906 208.0625 142.949219 207.824219 C 145.230469 207.25 147.144531 208.027344 149.171875 208.761719 C 143.34375 212.472656 136.628906 209.691406 131.316406 205.863281 C 125.570312 201.722656 121.414062 196.246094 117.082031 190.757812 C 115.023438 188.152344 112.453125 186.140625 109.242188 185.222656 C 105.828125 184.242188 101.882812 184.695312 98.472656 185.5 C 93.023438 186.78125 85.148438 191.101562 88.777344 197.738281 C 89.117188 198.363281 89.992188 198.277344 90.339844 197.722656 C 91.652344 195.628906 93.878906 192.59375 96.742188 192.96875 C 98.660156 193.222656 99.824219 195.035156 100.234375 196.777344 C 102.042969 204.441406 91.054688 204.984375 86.351562 204.058594 C 75.78125 201.976562 67.566406 192.511719 56.253906 193.234375 C 51.113281 193.5625 46.390625 196.183594 41.449219 197.414062 C 35.273438 198.949219 29.496094 196.664062 23.535156 195.351562 C 11.398438 192.675781 -9.550781 192.003906 -13.660156 207.246094 C -13.90625 208.15625 -12.832031 208.5625 -12.207031 208.066406"/></g></g></g></g><g clip-path="url(#az)"><g clip-path="url(#aA)"><g clip-path="url(#aB)"><g clip-path="url(#aC)"><path fill="#EC9014" d="M 140.21875 193.707031 C 145.679688 192.277344 151.027344 191.359375 156.601562 191.292969 C 155.617188 190.769531 154.679688 190.082031 153.925781 189.628906 C 151.40625 188.117188 149.003906 186.722656 146.074219 186.214844 C 140.765625 185.300781 132.136719 184.703125 130.53125 191.476562 C 129.347656 196.460938 137.777344 194.34375 140.21875 193.707031"/></g></g></g></g><g clip-path="url(#aD)"><g clip-path="url(#aE)"><g clip-path="url(#aF)"><g clip-path="url(#aG)"><path fill="#D8571E" d="M 146.074219 186.214844 C 149.003906 186.722656 151.40625 188.117188 153.925781 189.628906 C 154.679688 190.082031 155.617188 190.769531 156.601562 191.292969 C 151.027344 191.359375 145.679688 192.277344 140.21875 193.707031 C 137.777344 194.34375 129.347656 196.460938 130.53125 191.476562 C 132.136719 184.703125 140.765625 185.300781 146.074219 186.214844 Z M 137.511719 195.472656 C 139.894531 195.078125 142.167969 194.285156 144.511719 193.734375 C 149.527344 192.566406 154.625 192.328125 159.753906 192.417969 C 160.320312 192.429688 160.402344 191.734375 160.050781 191.457031 C 160.0625 191.128906 159.832031 190.769531 159.4375 190.769531 C 158.230469 190.773438 156.902344 189.800781 155.902344 189.226562 C 154.402344 188.367188 152.9375 187.449219 151.410156 186.632812 C 148.78125 185.226562 145.929688 184.769531 142.988281 184.519531 C 137.265625 184.042969 130.386719 185.144531 129.261719 191.863281 C 128.484375 196.503906 134.726562 195.933594 137.511719 195.472656"/></g></g></g></g><g clip-path="url(#aH)"><g clip-path="url(#aI)"><g clip-path="url(#aJ)"><g clip-path="url(#aK)"><path fill="#EBB92C" d="M 12.128906 219.195312 C 17.84375 221.15625 25.222656 224.332031 31.019531 221.304688 C 28.28125 221.203125 25.613281 219.980469 23.207031 218.796875 C 19.894531 217.171875 16.703125 215.304688 13.316406 213.832031 C 10.273438 212.511719 6.488281 211.066406 3.148438 212.125 C -0.613281 213.3125 -2.402344 217.0625 -3.480469 220.628906 C -1.175781 219.417969 1.273438 218.296875 3.867188 218.003906 C 6.699219 217.6875 9.457031 218.277344 12.128906 219.195312"/></g></g></g></g><g clip-path="url(#aL)"><g clip-path="url(#aM)"><g clip-path="url(#aN)"><g clip-path="url(#aO)"><path fill="#D8571E" d="M 3.148438 212.125 C 6.488281 211.066406 10.273438 212.511719 13.316406 213.832031 C 16.703125 215.304688 19.894531 217.171875 23.207031 218.796875 C 25.613281 219.980469 28.28125 221.203125 31.019531 221.304688 C 25.222656 224.332031 17.84375 221.15625 12.128906 219.195312 C 9.457031 218.277344 6.699219 217.6875 3.867188 218.003906 C 1.273438 218.296875 -1.175781 219.417969 -3.480469 220.628906 C -2.402344 217.0625 -0.613281 213.3125 3.148438 212.125 Z M -4.011719 222 C -0.976562 220.339844 2.15625 218.859375 5.671875 218.816406 C 8.957031 218.773438 12.097656 220.15625 15.160156 221.148438 C 20.757812 222.96875 27.578125 225.011719 32.78125 221.109375 C 33.140625 220.839844 32.84375 220.265625 32.480469 220.410156 C 32.421875 220.097656 32.1875 219.832031 31.78125 219.855469 C 28.328125 220.089844 24.886719 218.242188 21.878906 216.777344 C 18.316406 215.039062 14.832031 213.097656 11.074219 211.789062 C 8.03125 210.730469 4.6875 210.210938 1.65625 211.574219 C -2.125 213.269531 -3.777344 217.753906 -4.71875 221.46875 C -4.824219 221.886719 -4.371094 222.195312 -4.011719 222"/></g></g></g></g><g clip-path="url(#aP)"><g clip-path="url(#aQ)"><g clip-path="url(#aR)"><g clip-path="url(#aS)"><path fill="#EC9014" d="M 97.132812 270.511719 C 95.777344 270.527344 94.398438 270.734375 93.039062 270.707031 C 90.820312 270.671875 88.660156 270.058594 86.609375 269.246094 C 83.730469 268.101562 80.917969 266.761719 77.960938 265.820312 C 73.550781 264.417969 65.996094 262.785156 65.226562 268.898438 C 67.164062 268.363281 68.984375 268.609375 71.003906 269.121094 C 71.402344 269.222656 71.613281 269.695312 71.402344 270.058594 C 68.070312 275.773438 59.074219 276.914062 53.207031 277.601562 C 48.605469 278.148438 43.855469 278.453125 39.148438 278.328125 C 48.820312 280.53125 58.675781 281.914062 68.515625 279.484375 C 78.191406 277.097656 87.316406 272.300781 97.132812 270.511719"/></g></g></g></g><g clip-path="url(#aT)"><g clip-path="url(#aU)"><g clip-path="url(#aV)"><g clip-path="url(#aW)"><path fill="#D8571E" d="M 53.207031 277.601562 C 59.074219 276.914062 68.070312 275.773438 71.402344 270.058594 C 71.613281 269.695312 71.402344 269.222656 71.003906 269.121094 C 68.984375 268.609375 67.164062 268.363281 65.226562 268.898438 C 65.996094 262.785156 73.550781 264.417969 77.960938 265.820312 C 80.917969 266.761719 83.730469 268.101562 86.609375 269.246094 C 88.660156 270.058594 90.820312 270.671875 93.039062 270.707031 C 94.398438 270.734375 95.777344 270.527344 97.132812 270.511719 C 87.316406 272.300781 78.191406 277.097656 68.515625 279.484375 C 58.675781 281.914062 48.820312 280.53125 39.148438 278.328125 C 43.855469 278.453125 48.605469 278.148438 53.207031 277.601562 Z M 31.355469 277.6875 C 43.0625 280.648438 54.65625 283.148438 66.738281 280.882812 C 72.457031 279.808594 77.945312 277.542969 83.386719 275.523438 C 88.800781 273.515625 94.238281 271.796875 99.933594 270.90625 C 100.164062 270.988281 100.390625 271.078125 100.617188 271.191406 C 101.117188 271.441406 101.570312 271.039062 101.617188 270.617188 C 101.902344 270.433594 101.851562 269.90625 101.4375 269.941406 C 101.34375 269.949219 101.253906 269.957031 101.160156 269.96875 C 99.164062 269.011719 97.066406 269.128906 94.894531 269.285156 C 91.617188 269.515625 88.765625 268.71875 85.757812 267.480469 C 82.554688 266.160156 79.40625 264.765625 76.042969 263.894531 C 70.660156 262.5 63.96875 262.8125 63.863281 269.835938 C 63.855469 270.230469 64.304688 270.601562 64.6875 270.449219 C 66.457031 269.742188 68.058594 269.800781 69.800781 270.15625 C 68.179688 272.296875 65.46875 273.457031 63 274.296875 C 59.371094 275.542969 55.515625 276.125 51.714844 276.527344 C 45.140625 277.230469 38.21875 277.445312 31.65625 276.5 C 30.894531 276.390625 30.578125 277.492188 31.355469 277.6875"/></g></g></g></g><g clip-path="url(#aX)"><g clip-path="url(#aY)"><g clip-path="url(#aZ)"><g clip-path="url(#ba)"><path fill="#EBB92C" d="M 61.8125 249.699219 C 57.5625 253.488281 51.023438 252.789062 45.574219 252.34375 C 38.402344 251.753906 30.550781 251.328125 25.691406 257.066406 C 31.1875 254.53125 38.253906 255.570312 44 255.730469 C 50.316406 255.914062 58.546875 255.820312 61.8125 249.699219"/></g></g></g></g><g clip-path="url(#bb)"><g clip-path="url(#bc)"><g clip-path="url(#bd)"><g clip-path="url(#be)"><path fill="#D8571E" d="M 45.574219 252.34375 C 51.023438 252.789062 57.5625 253.488281 61.8125 249.699219 C 58.546875 255.820312 50.316406 255.914062 44 255.730469 C 38.253906 255.570312 31.1875 254.53125 25.691406 257.066406 C 30.550781 251.328125 38.402344 251.753906 45.574219 252.34375 Z M 24.15625 259.148438 C 27.121094 257.03125 30.90625 256.675781 34.4375 256.558594 C 38.601562 256.421875 42.769531 256.660156 46.933594 256.621094 C 53.496094 256.5625 60.570312 255.382812 62.90625 248.550781 C 63.105469 248.304688 63.300781 248.050781 63.488281 247.78125 C 63.9375 247.117188 62.859375 246.511719 62.414062 247.164062 C 58.140625 253.488281 48.695312 251.335938 42.3125 250.949219 C 34.910156 250.5 27.550781 251.519531 23.4375 258.445312 C 23.183594 258.875 23.722656 259.453125 24.15625 259.148438"/></g></g></g></g><g clip-path="url(#bf)"><g clip-path="url(#bg)"><g clip-path="url(#bh)"><g clip-path="url(#bi)"><path fill="#EBB92C" d="M 67.988281 184.011719 C 70.21875 184.746094 72.574219 185.484375 74.949219 185.433594 C 77.347656 185.382812 79.441406 184.648438 81.515625 183.558594 C 79.714844 183.710938 78.023438 183.425781 76.269531 182.597656 C 73.742188 181.398438 71.375 180.054688 68.558594 179.652344 C 64.710938 179.101562 61.167969 180.101562 57.617188 181.292969 C 61.179688 181.605469 64.539062 182.871094 67.988281 184.011719"/></g></g></g></g><g clip-path="url(#bj)"><g clip-path="url(#bk)"><g clip-path="url(#bl)"><g clip-path="url(#bm)"><path fill="#D8571E" d="M 68.558594 179.652344 C 71.375 180.054688 73.742188 181.398438 76.269531 182.597656 C 78.023438 183.425781 79.714844 183.710938 81.515625 183.558594 C 79.441406 184.648438 77.347656 185.382812 74.949219 185.433594 C 72.574219 185.484375 70.21875 184.746094 67.988281 184.011719 C 64.539062 182.871094 61.179688 181.605469 57.617188 181.292969 C 61.167969 180.101562 64.710938 179.101562 68.558594 179.652344 Z M 54.546875 182.308594 C 64.007812 181.375 73.742188 190.386719 82.472656 183.535156 C 82.515625 183.503906 82.539062 183.460938 82.550781 183.417969 C 82.75 183.382812 82.945312 183.351562 83.144531 183.308594 C 83.996094 183.125 83.613281 181.746094 82.769531 182 C 79.5 182.980469 76.882812 181.492188 74.023438 180.101562 C 71.976562 179.105469 69.78125 178.605469 67.523438 178.375 C 62.96875 177.917969 58.605469 179.84375 54.394531 181.296875 C 53.871094 181.480469 53.941406 182.367188 54.546875 182.308594"/></g></g></g></g><g clip-path="url(#bn)"><g clip-path="url(#bo)"><g clip-path="url(#bp)"><g clip-path="url(#bq)"><path fill="#EBB92C" d="M 170.433594 259.113281 C 170.53125 259.050781 170.621094 258.980469 170.695312 258.90625 L 170.433594 259.113281"/></g></g></g></g><g clip-path="url(#br)"><g clip-path="url(#bs)"><g clip-path="url(#bt)"><g clip-path="url(#bu)"><path fill="#EBB92C" d="M 118.089844 230.71875 C 123.550781 231.386719 128.542969 234.214844 133.011719 237.28125 C 138.039062 240.734375 142.671875 244.714844 147.503906 248.429688 C 151.601562 251.578125 156.214844 255.214844 161.367188 256.359375 C 166.582031 257.523438 170.738281 255.050781 173.71875 250.820312 C 173.753906 250.769531 173.796875 250.730469 173.84375 250.699219 C 173.519531 250.867188 173.089844 250.835938 172.839844 250.4375 C 169.734375 245.484375 163.609375 243.972656 158.523438 241.894531 C 157.859375 241.621094 158.183594 240.515625 158.867188 240.546875 C 162.9375 240.726562 167.019531 240.441406 171.0625 239.957031 C 161.472656 229.484375 146.980469 215.832031 131.957031 220.859375 C 136.632812 221.808594 141.074219 224.089844 142.335938 229.125 C 142.476562 229.695312 141.890625 230.167969 141.367188 229.886719 C 131.855469 224.820312 106.804688 218.113281 105.359375 234.527344 C 109.019531 231.683594 113.371094 230.140625 118.089844 230.71875"/></g></g></g></g><g clip-path="url(#bv)"><g clip-path="url(#bw)"><g clip-path="url(#bx)"><g clip-path="url(#by)"><path fill="#EC9014" d="M 141.367188 229.886719 C 141.890625 230.167969 142.476562 229.695312 142.335938 229.125 C 141.074219 224.089844 136.632812 221.808594 131.957031 220.859375 C 146.980469 215.832031 161.472656 229.484375 171.0625 239.957031 C 167.019531 240.441406 162.9375 240.726562 158.867188 240.546875 C 158.183594 240.515625 157.859375 241.621094 158.523438 241.894531 C 163.609375 243.972656 169.734375 245.484375 172.839844 250.4375 C 173.089844 250.835938 173.519531 250.867188 173.84375 250.699219 C 173.796875 250.730469 173.753906 250.769531 173.71875 250.820312 C 170.738281 255.050781 166.582031 257.523438 161.367188 256.359375 C 156.214844 255.214844 151.601562 251.578125 147.503906 248.429688 C 142.671875 244.714844 138.039062 240.734375 133.011719 237.28125 C 128.542969 234.214844 123.550781 231.386719 118.089844 230.71875 C 113.371094 230.140625 109.019531 231.683594 105.359375 234.527344 C 106.804688 218.113281 131.855469 224.820312 141.367188 229.886719 Z M 105.101562 236.433594 C 109.476562 232.535156 114.785156 231.082031 120.472656 232.5 C 126.085938 233.898438 131.058594 237.394531 135.652344 240.773438 C 140.5625 244.382812 145.210938 248.351562 150.214844 251.835938 C 154.078125 254.53125 158.484375 257.1875 163.289062 257.589844 C 168.082031 257.992188 171.855469 255.007812 174.464844 251.25 C 174.730469 250.867188 174.257812 250.515625 173.910156 250.667969 C 174.234375 250.464844 174.429688 250.0625 174.164062 249.644531 C 171.5625 245.546875 167.203125 243.679688 162.832031 242.019531 C 166.085938 241.949219 169.335938 241.652344 172.5625 241.234375 C 173.191406 241.15625 173.507812 240.480469 173.0625 239.980469 C 162.554688 228.328125 146.070312 212.8125 129.109375 220.5625 C 128.601562 220.792969 128.71875 221.71875 129.285156 221.785156 C 133.746094 222.304688 138.613281 223.746094 140.53125 227.980469 C 128.972656 222.496094 104.074219 217.265625 103.980469 235.984375 C 103.976562 236.589844 104.695312 236.792969 105.101562 236.433594"/></g></g></g></g><g clip-path="url(#bz)"><g clip-path="url(#bA)"><g clip-path="url(#bB)"><g clip-path="url(#bC)"><path fill="#EBB92C" d="M 88.398438 228.992188 C 92.5 228.53125 96.804688 228.085938 100.683594 226.566406 C 103.632812 225.414062 105.554688 223.746094 105.671875 220.625 C 102.128906 221.242188 98.777344 222.832031 95.230469 223.484375 C 91.804688 224.117188 88.355469 223.492188 84.921875 223.835938 C 78.933594 224.429688 72.644531 226.742188 69.484375 232.011719 C 71.40625 231.097656 73.722656 230.75 75.671875 230.441406 C 79.890625 229.777344 84.15625 229.46875 88.398438 228.992188"/></g></g></g></g><g clip-path="url(#bD)"><g clip-path="url(#bE)"><g clip-path="url(#bF)"><g clip-path="url(#bG)"><path fill="#EC9014" d="M 84.921875 223.835938 C 88.355469 223.492188 91.804688 224.117188 95.230469 223.484375 C 98.777344 222.832031 102.128906 221.242188 105.671875 220.625 C 105.554688 223.746094 103.632812 225.414062 100.683594 226.566406 C 96.804688 228.085938 92.5 228.53125 88.398438 228.992188 C 84.15625 229.46875 79.890625 229.777344 75.671875 230.441406 C 73.722656 230.75 71.40625 231.097656 69.484375 232.011719 C 72.644531 226.742188 78.933594 224.429688 84.921875 223.835938 Z M 68.277344 234.433594 C 70.574219 232.109375 75.023438 231.859375 78.039062 231.453125 C 82.699219 230.828125 87.394531 230.5 92.054688 229.84375 C 96.652344 229.195312 108.472656 227.457031 106.710938 220.289062 C 107.15625 219.8125 106.984375 218.867188 106.199219 218.980469 C 102.136719 219.558594 98.375 221.460938 94.296875 222.054688 C 90.359375 222.632812 86.386719 221.992188 82.433594 222.621094 C 75.742188 223.675781 69.671875 227.277344 67.160156 233.800781 C 66.910156 234.449219 67.84375 234.871094 68.277344 234.433594"/></g></g></g></g><g clip-path="url(#bH)"><path fill="#1A1A1A" d="M 337.449219 187.523438 C 337.449219 246.550781 289.601562 294.402344 230.578125 294.402344 C 171.550781 294.402344 123.703125 246.550781 123.703125 187.523438 C 123.703125 128.496094 171.550781 80.648438 230.578125 80.648438 C 289.601562 80.648438 337.449219 128.496094 337.449219 187.523438 Z M 337.449219 187.523438"/></g><path fill="#333" d="M 314.679688 187.550781 C 314.679688 232.574219 277.0625 269.074219 230.65625 269.074219 C 184.25 269.074219 146.632812 232.574219 146.632812 187.550781 C 146.632812 142.527344 184.25 106.03125 230.65625 106.03125 C 277.0625 106.03125 314.679688 142.527344 314.679688 187.550781 Z M 314.679688 187.550781"/><g clip-path="url(#bI)"><path transform="matrix(1.62376 0 0 1.53514 -651.043 -1063.12)" fill="none" d="M 591.409012 814.669224 C 591.409012 842.124979 569.724165 864.379662 542.972944 864.379662 C 516.219317 864.379662 494.53447 842.124979 494.53447 814.669224 C 494.53447 787.216014 516.219317 764.958786 542.972944 764.958786 C 569.724165 764.958786 591.409012 787.216014 591.409012 814.669224 Z M 591.409012 814.669224" stroke="#7D7D7D" stroke-width="3.711"/></g><path fill="#939393" d="M 230.617188 106.003906 C 226.441406 106.003906 222.335938 106.3125 218.324219 106.886719 C 218.324219 106.886719 221.832031 146.191406 207.933594 156.285156 C 194.035156 166.382812 155.65625 150.671875 155.65625 150.671875 C 152.023438 157.613281 149.414062 165.125 147.953125 173.03125 C 147.953125 173.03125 188.53125 182.828125 193.925781 199.425781 C 199.316406 216.023438 172.773438 246.601562 172.773438 246.601562 C 178.695312 252.058594 185.449219 256.675781 192.8125 260.285156 C 192.8125 260.285156 213.625 226.097656 230.617188 226.097656 C 247.605469 226.097656 268.421875 260.285156 268.421875 260.285156 C 275.785156 256.675781 282.539062 252.058594 288.460938 246.601562 C 288.460938 246.601562 261.917969 216.023438 267.308594 199.425781 C 272.699219 182.828125 313.277344 173.03125 313.277344 173.03125 C 311.816406 165.125 309.207031 157.613281 305.578125 150.671875 C 305.578125 150.671875 267.195312 166.382812 253.300781 156.285156 C 239.402344 146.191406 242.910156 106.886719 242.910156 106.886719 C 238.898438 106.3125 234.792969 106.003906 230.617188 106.003906 Z M 230.617188 106.003906"/><g clip-path="url(#bJ)"><path transform="matrix(1.73464 0 0 1.63994 -711.205 -1148.457)" fill="none" d="M 591.41046 814.669796 C 591.41046 842.12416 569.72459 864.381108 542.971927 864.381108 C 516.219264 864.381108 494.533393 842.12416 494.533393 814.669796 C 494.533393 787.215431 516.219264 764.960865 542.971927 764.960865 C 569.72459 764.960865 591.41046 787.215431 591.41046 814.669796 Z M 591.41046 814.669796" stroke="#939393" stroke-width="3.711"/></g><g clip-path="url(#bK)"><g clip-path="url(#bL)"><path fill="url(#bM)" d="M 204.40625 160.402344 L 204.40625 214.570312 L 256.898438 214.570312 L 256.898438 160.402344 Z M 204.40625 160.402344"/></g></g><g clip-path="url(#bN)"><g clip-path="url(#bO)"><path fill="url(#bP)" d="M 212.011719 168.320312 L 212.011719 206.78125 L 249.289062 206.78125 L 249.289062 168.320312 Z M 212.011719 168.320312"/></g></g><path fill="#5E5B51" d="M 255.851562 168.199219 C 255.851562 171.476562 253.191406 174.136719 249.914062 174.136719 C 246.632812 174.136719 243.976562 171.476562 243.976562 168.199219 C 243.976562 164.917969 246.632812 162.261719 249.914062 162.261719 C 253.191406 162.261719 255.851562 164.917969 255.851562 168.199219 Z M 255.851562 168.199219"/><path fill="#5E5B51" d="M 215.773438 168.199219 C 215.773438 171.476562 213.113281 174.136719 209.835938 174.136719 C 206.554688 174.136719 203.898438 171.476562 203.898438 168.199219 C 203.898438 164.917969 206.554688 162.261719 209.835938 162.261719 C 213.113281 162.261719 215.773438 164.917969 215.773438 168.199219 Z M 215.773438 168.199219"/><path fill="#5E5B51" d="M 255.851562 206.792969 C 255.851562 210.070312 253.191406 212.730469 249.914062 212.730469 C 246.632812 212.730469 243.976562 210.070312 243.976562 206.792969 C 243.976562 203.511719 246.632812 200.855469 249.914062 200.855469 C 253.191406 200.855469 255.851562 203.511719 255.851562 206.792969 Z M 255.851562 206.792969"/><path fill="#5E5B51" d="M 215.773438 206.792969 C 215.773438 210.070312 213.113281 212.730469 209.835938 212.730469 C 206.554688 212.730469 203.898438 210.070312 203.898438 206.792969 C 203.898438 203.511719 206.554688 200.855469 209.835938 200.855469 C 213.113281 200.855469 215.773438 203.511719 215.773438 206.792969 Z M 215.773438 206.792969"/></svg>